<?xml version="1.0" standalone="no"?>
<!DOCTYPE svg PUBLIC "-//W3C//DTD SVG 20010904//EN"
 "http://www.w3.org/TR/2001/REC-SVG-20010904/DTD/svg10.dtd">
<svg version="1.0" xmlns="http://www.w3.org/2000/svg"
 width="1657.000000pt" height="1695.000000pt" viewBox="0 0 1657.000000 1695.000000"
 preserveAspectRatio="xMidYMid meet">

<g transform="translate(0.000000,1695.000000) scale(0.100000,-0.100000)"
fill="#000000" stroke="none">
<path d="M8285 15881 c-11 -5 -157 -12 -325 -15 -168 -4 -320 -12 -338 -17
-17 -6 -105 -14 -195 -19 -89 -5 -189 -14 -222 -19 -61 -10 -154 -23 -330 -44
-55 -7 -104 -15 -110 -18 -5 -4 -53 -10 -105 -14 -52 -4 -112 -14 -134 -21
-21 -8 -58 -14 -83 -14 -24 0 -56 -6 -71 -14 -15 -7 -56 -16 -91 -20 -35 -4
-71 -11 -80 -16 -9 -5 -45 -14 -81 -19 -93 -14 -208 -39 -228 -50 -9 -4 -38
-12 -64 -15 -26 -4 -50 -11 -53 -17 -4 -5 -19 -9 -34 -9 -15 0 -65 -12 -112
-26 -46 -15 -109 -32 -140 -39 -30 -7 -65 -17 -77 -24 -11 -6 -28 -11 -37 -11
-9 0 -31 -6 -48 -14 -18 -8 -48 -19 -67 -25 -48 -13 -99 -31 -135 -47 -16 -7
-59 -23 -95 -35 -36 -13 -76 -29 -90 -36 -14 -7 -30 -13 -37 -13 -31 0 -605
-284 -654 -323 -15 -12 -57 -40 -94 -62 -36 -22 -85 -57 -108 -78 -23 -21 -58
-46 -77 -57 -40 -21 -290 -272 -290 -290 0 -7 -16 -30 -35 -51 -19 -22 -35
-45 -35 -53 0 -7 -7 -19 -16 -27 -24 -20 -88 -154 -114 -239 -19 -64 -23 -98
-24 -230 0 -94 4 -167 11 -185 6 -17 19 -57 29 -90 19 -66 69 -173 109 -231
15 -21 25 -49 23 -62 l-3 -24 -1092 1 -1093 2 -9 -23 c-10 -26 -30 -118 -41
-193 -8 -49 -12 -74 -51 -270 -11 -55 -26 -136 -35 -180 -8 -44 -22 -111 -29
-150 -8 -38 -31 -155 -50 -260 -35 -185 -56 -293 -75 -385 -5 -25 -14 -74 -20
-110 -6 -36 -17 -94 -24 -130 -8 -36 -22 -103 -31 -150 -9 -47 -22 -116 -30
-155 -8 -38 -24 -122 -35 -185 -12 -63 -29 -148 -37 -189 -19 -90 -13 -210 13
-266 31 -65 90 -139 146 -183 158 -120 375 -144 562 -62 26 12 55 18 66 15 20
-6 20 -32 20 -3993 0 -2541 3 -3989 10 -3996 14 -14 40 13 40 43 0 15 7 36 15
47 11 15 14 54 15 176 0 86 4 159 9 162 5 3 15 -1 22 -10 9 -11 28 -14 77 -12
37 1 67 -2 69 -7 3 -10 31 -53 55 -87 10 -14 9 -21 -10 -38 -60 -56 -76 -172
-33 -231 l23 -30 -21 -6 c-12 -3 -21 -8 -22 -12 0 -3 -2 -22 -4 -41 -2 -20 0
-42 4 -48 7 -12 108 -20 141 -11 16 4 17 -12 4 -64 -9 -39 22 -93 64 -113 32
-15 58 -15 110 1 19 6 24 3 33 -22 10 -29 44 -53 75 -53 8 0 37 11 64 25 l49
25 43 -25 c50 -29 132 -34 164 -10 25 19 48 19 64 0 21 -25 107 -19 159 10
l44 26 46 -23 c60 -29 123 -29 182 0 54 26 58 26 95 7 38 -20 108 -19 128 1 9
8 16 25 16 36 0 18 4 19 53 13 28 -4 65 -14 81 -22 19 -10 42 -13 66 -9 32 5
39 2 59 -25 25 -33 43 -35 108 -8 29 12 37 11 62 -4 34 -20 79 -22 116 -5 21
9 31 9 46 0 26 -17 91 -15 115 3 24 18 62 18 94 0 35 -20 69 -18 114 5 36 20
40 20 81 5 51 -20 82 -13 95 20 8 22 13 24 58 18 45 -5 50 -3 75 27 30 35 32
47 15 85 -10 23 -8 28 22 55 37 33 43 35 70 20 12 -7 28 -7 44 0 22 8 26 16
26 47 0 21 -8 45 -18 57 -10 12 -26 42 -36 68 -9 25 -24 52 -32 58 -23 20 -18
44 9 35 22 -8 265 -10 273 -3 2 2 6 44 9 92 5 71 3 92 -10 112 -15 24 -19 24
-138 23 -67 0 -130 -5 -140 -10 -25 -14 -57 -2 -57 21 0 14 9 20 33 22 l32 3
3 96 c2 85 1 97 -18 114 -11 10 -20 21 -20 25 0 3 67 4 149 3 93 -3 152 0 156
6 4 7 14 7 30 1 14 -5 119 -10 235 -10 196 0 210 2 220 20 12 23 13 180 1 199
-7 10 -35 13 -120 12 -92 -2 -111 1 -111 13 0 8 5 18 10 21 6 3 10 48 10 100
0 90 -1 95 -22 100 -13 3 -117 4 -233 3 l-210 -3 0 -100 c0 -55 2 -107 5 -115
4 -11 -3 -16 -24 -18 -35 -4 -56 12 -38 30 18 18 16 182 -2 197 -9 8 -79 11
-232 9 l-219 -3 0 -77 c0 -75 -12 -107 -34 -94 -6 4 -8 32 -4 74 8 102 16 99
-241 101 -250 2 -239 7 -231 -103 2 -38 0 -67 -5 -67 -6 -1 -15 -2 -21 -3 -8
-1 -13 27 -16 79 -2 44 -7 83 -11 87 -9 9 -259 12 -294 3 -34 -9 -46 12 -27
46 13 24 15 153 4 190 -6 19 -13 21 -83 17 -60 -2 -86 1 -115 15 -42 21 -95
17 -131 -9 -30 -21 -52 -17 -89 16 -19 17 -39 30 -44 30 -6 0 -24 7 -41 15
-24 13 -38 13 -74 5 -23 -6 -54 -14 -67 -17 -31 -8 -109 -87 -117 -119 -9 -33
-27 -30 -55 10 -47 70 -150 94 -204 48 -37 -31 -66 -88 -59 -116 5 -22 1 -28
-27 -43 -37 -20 -62 -43 -76 -68 -9 -15 -32 -16 -212 -15 -141 0 -207 -3 -217
-11 -10 -8 -14 -36 -14 -100 0 -111 12 -129 84 -123 49 4 49 4 60 -48 4 -16
30 -53 60 -84 l53 -56 -14 -37 -14 -36 -115 4 c-110 3 -115 2 -134 -20 -19
-24 -19 -4 -20 3537 0 2563 3 3563 11 3571 7 7 22 8 43 2 33 -9 13312 -8
13351 1 20 5 20 -1 25 -3040 3 -1675 2 -3054 -1 -3065 -7 -20 -14 7 -40 155
-16 93 -18 99 -39 110 -24 13 -2235 14 -2257 1 -17 -9 -42 -68 -50 -116 -2
-16 -18 -84 -34 -150 -16 -66 -33 -152 -39 -191 -5 -40 -14 -84 -20 -98 -5
-15 -10 -39 -10 -54 0 -25 -23 -107 -39 -141 -5 -11 -42 -13 -183 -12 -161 2
-178 1 -186 -16 -9 -17 -9 -169 -1 -203 3 -11 -6 -16 -30 -18 -31 -3 -33 -2
-27 20 13 42 17 178 6 198 -10 19 -22 20 -230 20 -199 0 -220 -2 -228 -17 -5
-10 -10 -57 -10 -105 -1 -112 0 -113 132 -110 110 3 134 -4 119 -34 -5 -11
-10 -53 -11 -95 -1 -59 2 -80 14 -90 24 -20 438 -26 450 -7 5 7 9 60 9 118 0
103 0 105 24 108 20 3 22 1 15 -15 -5 -10 -10 -62 -12 -116 l-3 -97 25 0 c31
0 37 -16 21 -60 -14 -39 -55 -253 -55 -288 0 -12 -4 -22 -10 -22 -5 0 -10 15
-10 33 0 18 -5 38 -11 44 -7 7 -77 9 -222 6 -174 -3 -214 -7 -224 -19 -7 -10
-11 -51 -11 -106 1 -87 2 -90 27 -100 17 -7 95 -8 219 -4 l193 7 -3 -38 -3
-38 -3714 -3 c-2725 -1 -3718 -5 -3727 -13 -21 -17 -17 -35 11 -53 23 -15 327
-16 3716 -16 2723 0 3695 -3 3705 -11 15 -12 19 -90 7 -103 -5 -4 -14 -38 -21
-74 -7 -37 -17 -89 -23 -117 -5 -27 -13 -72 -17 -100 -5 -27 -13 -60 -20 -72
-7 -12 -12 -42 -12 -67 0 -25 -4 -48 -10 -51 -5 -3 -10 -25 -10 -48 0 -23 -7
-55 -15 -71 -28 -53 -20 -56 143 -56 108 0 152 4 160 13 5 6 15 41 20 77 36
220 56 288 88 301 14 5 161 9 329 9 l303 0 26 -31 c16 -18 26 -43 26 -61 0
-17 5 -48 12 -69 l11 -39 129 0 c130 0 138 3 119 38 -5 9 -12 42 -16 73 -11
93 -25 89 334 89 352 0 347 1 344 -73 -1 -25 -6 -54 -12 -66 -6 -11 -11 -35
-11 -54 0 -19 -6 -50 -14 -68 -8 -19 -16 -56 -18 -84 l-3 -50 156 -3 c117 -2
159 1 166 10 5 7 24 85 42 173 18 88 39 187 46 220 7 33 18 86 25 117 9 46 16
59 33 63 32 9 574 1 583 -7 6 -7 42 -162 65 -283 20 -106 4 -95 139 -95 135 0
130 -3 106 78 -8 26 -21 81 -31 122 -31 144 -57 255 -70 310 -8 30 -18 75 -24
100 -5 25 -21 92 -35 150 -13 58 -28 119 -31 135 -20 98 -81 359 -111 475 -7
30 -21 89 -30 130 -9 41 -20 88 -25 105 -6 17 -9 1402 -9 3495 0 3464 0 3465
20 3468 11 2 35 -4 53 -13 53 -27 176 -55 241 -55 62 0 202 32 220 50 6 6 17
10 26 10 37 0 170 126 208 198 34 64 56 166 48 221 -4 20 -9 54 -12 76 -3 22
-8 43 -10 47 -2 3 -13 57 -25 120 -11 62 -27 145 -35 183 -7 39 -18 99 -24
135 -6 35 -15 80 -20 100 -15 61 -53 259 -80 423 -6 33 -13 63 -16 68 -3 5
-10 35 -14 67 -8 52 -41 223 -76 397 -8 39 -19 97 -24 130 -4 33 -13 80 -19
105 -12 53 -55 273 -80 410 -19 108 -35 176 -44 188 -8 10 -100 12 -456 8
-245 -2 -453 -4 -461 -4 -8 0 -300 2 -647 4 -627 5 -633 5 -633 25 0 11 16 44
35 74 80 126 127 254 144 400 7 50 12 95 12 100 0 24 -31 195 -44 240 -20 71
-114 259 -143 286 -13 12 -24 29 -24 37 0 21 -266 289 -325 327 -27 18 -59 42
-69 54 -11 12 -42 34 -68 48 -26 14 -48 29 -48 33 0 4 -15 13 -32 20 -18 7
-44 23 -58 35 -14 12 -69 45 -122 73 -53 28 -105 56 -115 61 -19 10 -225 109
-328 157 -61 28 -112 48 -220 84 -33 11 -71 26 -85 33 -14 8 -59 24 -100 37
-41 12 -83 27 -92 31 -10 5 -34 13 -55 18 -21 5 -51 14 -68 20 -65 23 -232 70
-270 76 -22 4 -58 13 -80 20 -38 12 -66 19 -200 52 -33 8 -87 18 -120 22 -33
5 -82 16 -108 25 -26 9 -60 16 -76 16 -16 0 -48 7 -71 15 -23 8 -59 15 -80 15
-21 0 -55 6 -76 13 -22 8 -75 17 -118 21 -44 3 -94 10 -110 16 -17 5 -76 14
-131 19 -55 6 -149 17 -210 25 -327 43 -455 52 -860 66 -159 6 -309 15 -333
20 -50 12 -558 12 -587 1z m1090 -66 c420 -29 864 -78 1145 -126 63 -11 151
-27 195 -34 44 -8 106 -19 137 -24 64 -11 539 -128 668 -165 337 -96 575 -173
705 -230 17 -7 46 -19 65 -26 79 -29 300 -135 415 -198 309 -169 575 -382 750
-602 140 -176 206 -369 205 -601 -1 -104 -55 -284 -115 -379 -95 -151 -324
-396 -450 -483 -148 -101 -290 -188 -425 -260 -41 -22 -100 -54 -130 -72 -30
-17 -91 -46 -135 -64 -44 -18 -93 -39 -110 -46 -474 -211 -1276 -419 -1990
-516 -300 -41 -383 -50 -530 -59 -82 -5 -208 -13 -280 -19 -571 -47 -1418 -45
-1995 4 -96 8 -213 22 -260 29 -47 8 -173 24 -280 36 -374 41 -999 158 -1151
215 -20 8 -88 27 -150 44 -247 65 -495 149 -869 295 -98 37 -412 198 -455 231
-11 9 -63 44 -116 78 -203 132 -383 290 -498 437 -23 30 -55 70 -69 89 -45 57
-70 107 -109 219 l-37 107 -1 170 c0 189 8 225 83 365 147 275 387 507 725
699 285 162 623 321 812 382 33 11 96 32 140 48 44 16 116 38 160 50 44 12 96
26 115 31 19 6 98 28 175 51 77 22 178 50 225 60 47 11 114 26 150 35 283 66
829 152 1100 174 74 6 200 17 280 25 147 15 381 30 705 45 247 12 933 3 1200
-15z m-6073 -2575 c14 -1 18 -39 7 -91 -5 -30 -14 -85 -19 -124 -5 -38 -15
-117 -24 -175 -8 -58 -22 -157 -31 -220 -8 -63 -22 -160 -30 -215 -8 -55 -22
-149 -30 -210 -9 -60 -20 -137 -25 -170 -5 -33 -21 -145 -35 -250 -13 -104
-29 -217 -35 -250 -6 -33 -15 -94 -20 -135 -8 -70 -16 -125 -40 -290 -5 -36
-14 -97 -20 -137 -5 -39 -10 -85 -10 -102 0 -63 16 -61 -504 -61 -537 0 -506
-5 -488 77 6 27 18 91 27 143 8 52 22 131 30 175 8 44 17 98 20 120 3 22 17
108 31 190 14 83 29 175 34 205 5 30 15 96 24 145 8 50 35 212 60 360 25 149
52 308 60 355 8 47 20 117 26 155 19 122 54 332 72 425 17 93 -21 86 475 83
241 -1 441 -2 445 -3z m11454 -15 c7 -10 16 -38 19 -64 3 -25 12 -82 20 -126
8 -44 24 -138 35 -210 20 -126 34 -208 64 -385 8 -47 27 -157 40 -245 14 -88
30 -182 35 -210 24 -129 34 -185 41 -240 5 -33 20 -127 35 -210 14 -82 30
-177 35 -210 5 -33 23 -141 40 -240 46 -262 45 -256 29 -266 -8 -5 -226 -9
-485 -9 -365 0 -474 3 -481 13 -6 6 -25 116 -42 242 -17 127 -36 257 -41 290
-5 33 -12 80 -15 105 -3 25 -10 74 -16 110 -5 36 -21 146 -34 245 -14 99 -29
209 -35 245 -6 36 -15 101 -21 145 -6 44 -17 127 -25 185 -20 138 -51 366 -64
460 -5 41 -14 100 -20 130 -24 144 -33 240 -22 253 9 11 96 13 453 12 414 -1
442 -2 455 -20z m-10447 -512 c5 -10 27 -28 48 -39 87 -49 279 -144 289 -144
6 0 17 -6 24 -14 6 -8 40 -24 76 -36 35 -12 66 -26 69 -31 4 -5 14 -9 25 -9
10 0 35 -9 57 -19 21 -10 61 -27 88 -36 28 -9 64 -23 80 -30 17 -8 38 -16 47
-19 10 -3 15 -12 12 -23 -13 -57 -22 -239 -13 -256 7 -13 7 -51 0 -120 -6 -56
-18 -185 -27 -287 -8 -102 -22 -250 -29 -330 -8 -80 -20 -217 -26 -305 -7 -99
-17 -169 -26 -182 l-13 -23 -474 0 c-517 0 -504 -2 -492 57 3 15 13 89 21 163
9 74 23 194 31 265 8 72 21 186 29 255 8 69 26 224 40 345 29 244 39 335 54
473 6 61 15 100 26 112 11 12 18 44 21 96 9 134 34 189 63 137z m8584 -5 c3
-13 9 -65 13 -117 5 -72 12 -99 26 -113 12 -12 18 -33 18 -60 0 -23 4 -67 10
-97 5 -31 14 -105 20 -166 10 -99 17 -160 50 -440 19 -159 40 -343 55 -475 9
-74 20 -166 25 -205 20 -159 22 -207 8 -216 -7 -5 -225 -9 -485 -9 -448 0
-473 1 -482 18 -5 10 -15 72 -20 138 -6 65 -18 196 -26 289 -9 94 -20 226 -25
295 -6 69 -14 159 -19 200 -17 137 -23 297 -12 318 6 12 7 31 2 49 -5 16 -10
69 -12 118 l-4 89 45 21 c84 41 121 55 140 55 10 0 45 14 77 30 32 17 90 44
129 59 58 24 168 79 375 187 14 8 34 23 44 34 24 26 42 25 48 -2z m-6638 -685
c66 -15 134 -27 240 -42 39 -6 102 -17 140 -25 39 -9 111 -20 160 -26 148 -16
248 -31 257 -36 5 -3 8 -65 8 -137 0 -73 -1 -222 -1 -332 1 -258 -18 -598 -33
-607 -6 -4 -223 -8 -482 -8 -386 0 -474 2 -483 14 -8 10 -9 41 -2 112 6 55 15
194 21 309 17 344 32 508 48 532 9 15 15 61 18 135 5 132 8 143 32 133 9 -5
44 -14 77 -22z m4751 -50 c4 -37 8 -92 9 -122 1 -31 9 -72 17 -91 16 -34 17
-55 48 -620 10 -170 17 -247 26 -281 3 -9 -3 -24 -11 -33 -15 -14 -69 -16
-489 -16 -367 0 -476 3 -483 13 -6 6 -14 98 -18 202 -3 105 -10 273 -14 375
-5 133 -4 194 4 215 8 20 10 65 6 132 -3 56 -4 112 -1 125 6 25 4 24 280 62
63 9 147 23 185 31 39 8 83 15 99 15 37 0 130 18 216 41 36 9 77 17 92 18 25
1 27 -1 34 -66z m-2430 -164 c214 -1 402 2 418 6 19 5 31 3 37 -6 5 -8 9 -66
8 -130 -1 -89 3 -123 15 -147 14 -27 16 -78 16 -370 0 -301 -2 -341 -16 -346
-9 -3 -226 -6 -484 -6 -408 0 -469 2 -480 15 -20 24 -5 681 16 712 10 17 14
56 14 154 l0 131 34 -6 c18 -4 208 -7 422 -7z m-5618 -1081 c8 -123 -145 -292
-316 -349 -92 -31 -232 -32 -319 -2 -69 24 -151 74 -201 122 -60 59 -131 189
-132 242 0 39 8 39 495 37 l470 -3 3 -47z m2032 31 c32 -58 -59 -220 -166
-300 -65 -48 -117 -72 -199 -94 -242 -63 -528 100 -594 338 -23 82 -52 77 480
77 463 0 468 0 479 -21z m2036 -4 c16 -65 -55 -199 -147 -277 -99 -84 -203
-122 -334 -123 -91 0 -153 15 -240 58 -72 36 -174 136 -210 207 -32 63 -44
138 -24 151 8 5 224 9 481 9 l468 0 6 -25z m2028 -30 c-2 -133 -157 -299 -329
-351 -88 -26 -221 -24 -308 5 -81 27 -173 87 -223 144 -72 84 -126 227 -93
248 8 5 222 8 484 6 l470 -2 -1 -50z m2034 38 c14 -27 -12 -115 -52 -177 -96
-150 -248 -231 -431 -230 -148 1 -264 51 -366 156 -79 82 -143 237 -108 259 8
5 224 9 481 9 435 0 468 -1 476 -17z m2031 -1 c5 -10 6 -35 2 -57 -24 -131
-165 -274 -319 -326 -85 -29 -220 -31 -303 -6 -160 50 -273 152 -329 299 -23
61 -25 94 -7 101 6 3 222 6 479 6 432 0 469 -1 477 -17z m2029 -35 c7 -104
-104 -248 -247 -321 -100 -52 -275 -67 -376 -32 -171 59 -294 183 -335 336
-20 73 -40 71 490 68 l465 -3 3 -48z m19 -6493 c3 -9 -15 -111 -40 -227 -25
-117 -62 -288 -82 -382 -20 -93 -42 -199 -50 -235 -8 -36 -23 -108 -34 -160
-11 -52 -34 -158 -50 -235 -16 -77 -41 -196 -56 -265 -14 -69 -37 -174 -50
-235 -25 -116 -109 -507 -146 -685 -34 -165 -21 -151 -141 -148 l-103 3 4 55
c2 30 9 67 17 82 8 15 14 42 14 60 0 18 7 51 15 73 18 52 18 70 0 89 -13 13
-124 14 -862 15 -467 0 -856 -3 -865 -5 -20 -6 -28 -32 -65 -213 -14 -75 -31
-142 -36 -148 -12 -17 -178 -18 -194 -2 -8 8 -9 19 -1 38 11 27 24 99 36 191
4 30 11 61 16 69 5 7 15 43 22 80 8 36 23 109 34 161 12 52 23 115 26 140 3
25 11 70 19 100 8 30 30 134 50 230 20 96 42 202 50 235 8 33 16 71 18 85 8
40 53 252 87 410 40 182 61 283 93 435 61 292 80 371 95 388 14 16 79 17 1094
17 979 0 1079 -1 1085 -16z m-12186 -589 c16 -9 37 -32 47 -53 17 -36 18 -37
70 -34 50 3 53 2 73 -32 22 -39 48 -46 73 -21 21 21 79 22 110 1 23 -14 26
-23 26 -69 -1 -30 -7 -60 -15 -71 -8 -11 -15 -33 -15 -49 0 -27 2 -29 28 -23
108 26 157 13 186 -49 16 -33 16 -39 1 -85 -11 -33 -31 -63 -64 -93 -65 -61
-67 -71 -26 -108 60 -55 56 -138 -11 -203 -34 -33 -114 -66 -160 -66 -35 0
-116 30 -140 51 -29 27 -41 24 -68 -20 -51 -79 -165 -74 -220 10 -15 21 -33
39 -41 39 -8 0 -26 -17 -39 -38 -63 -101 -177 -148 -256 -107 -34 18 -50 43
-50 80 0 30 -25 43 -51 27 -25 -16 -44 -15 -59 3 -17 20 -38 19 -83 -5 -45
-24 -50 -24 -93 -4 -40 19 -64 59 -64 105 0 24 11 43 50 82 28 28 50 53 50 56
0 4 -7 16 -15 29 -20 27 -9 50 40 88 42 31 46 61 10 70 -29 7 -72 55 -81 90
-14 55 50 134 109 134 17 0 46 -6 65 -12 32 -12 35 -11 56 14 11 14 32 28 46
30 23 3 25 7 22 46 -4 62 13 114 48 147 57 55 138 28 179 -60 28 -59 44 -59
76 5 10 18 23 39 29 45 26 25 73 53 96 58 14 2 26 5 28 6 2 0 16 -6 33 -14z
m1065 -336 c3 -6 1 -16 -5 -22 -9 -9 -14 -8 -21 3 -9 15 -4 30 10 30 5 0 12
-5 16 -11z m610 -22 c4 -3 1 -13 -5 -21 -7 -8 -12 -37 -11 -63 3 -77 1 -83
-19 -83 -16 0 -20 8 -23 43 -3 37 -7 44 -36 56 -31 14 -51 49 -38 69 6 11 121
10 132 -1z m494 5 c0 -5 -9 -17 -19 -26 -19 -17 -20 -17 -30 2 -8 15 -8 22 2
25 20 9 47 8 47 -1z m7550 4 c0 -11 -19 -15 -25 -6 -3 5 1 10 9 10 9 0 16 -2
16 -4z m-8492 -60 c13 -7 29 -23 35 -37 10 -19 21 -24 51 -25 30 -1 44 -7 58
-28 23 -30 36 -32 76 -9 28 16 31 16 56 0 31 -21 32 -31 6 -92 -11 -26 -20
-51 -20 -57 0 -7 22 -8 64 -3 58 6 66 4 85 -17 46 -49 39 -88 -30 -163 l-42
-46 28 -29 c102 -106 -76 -247 -213 -169 l-40 23 -36 -38 c-32 -35 -39 -38
-73 -33 -27 4 -47 17 -69 42 -36 41 -61 45 -73 11 -13 -33 -77 -83 -117 -90
-50 -10 -100 14 -107 53 -6 28 -10 31 -45 31 -21 0 -43 5 -49 11 -9 9 -21 8
-46 -5 -49 -23 -72 -20 -96 10 -30 38 -27 80 9 116 23 22 30 39 30 68 0 32 6
43 30 60 38 27 38 37 0 58 -16 9 -37 32 -45 49 -14 29 -14 36 0 62 22 43 48
54 106 46 32 -4 49 -3 49 4 0 5 12 16 28 23 23 11 27 20 30 63 4 57 40 105 79
105 34 0 70 -27 82 -61 14 -40 44 -38 70 6 19 33 74 75 96 75 6 -1 20 -6 33
-14z m909 -98 c-2 -18 -4 -6 -4 27 0 33 2 48 4 33 2 -15 2 -42 0 -60z m-3237
-218 c0 -16 -4 -32 -10 -35 -6 -4 -10 10 -10 35 0 25 4 39 10 35 6 -3 10 -19
10 -35z m1655 -355 c0 -25 -4 -31 -26 -33 -32 -4 -44 20 -26 49 19 31 52 21
52 -16z m1090 -126 c0 -19 -5 -24 -24 -24 -30 0 -37 17 -15 39 22 22 39 15 39
-15z m-2067 -33 c6 -30 -19 -66 -44 -66 -26 0 -44 26 -36 50 14 40 74 52 80
16z m1335 -88 c13 -20 -6 -48 -35 -48 -24 0 -33 23 -18 50 13 24 38 23 53 -2z"/>
<path d="M8213 15006 c-153 -26 -232 -66 -269 -137 -19 -37 -18 -112 2 -152 9
-18 43 -57 75 -88 l60 -56 -2 -385 c-1 -257 3 -398 10 -422 6 -20 16 -53 22
-73 5 -21 24 -66 42 -100 37 -72 32 -88 -24 -73 -51 14 -73 44 -103 138 -14
45 -33 96 -42 113 -25 49 -80 123 -105 139 -12 8 -31 22 -42 31 l-21 17 19 43
c21 46 21 49 14 279 -5 140 -6 147 -37 210 -38 75 -59 101 -122 150 -95 76
-200 105 -375 105 -121 0 -300 -25 -398 -55 -15 -5 -87 -16 -160 -24 -273 -31
-303 -35 -344 -48 -53 -15 -61 -9 -78 69 -27 119 -67 199 -130 255 -51 47 -75
50 -276 38 -235 -13 -640 -13 -887 1 -168 9 -200 8 -247 -6 -103 -29 -166
-121 -150 -216 8 -49 36 -84 88 -110 93 -48 91 -41 96 -424 4 -402 -9 -571
-46 -615 -13 -16 -39 -34 -58 -40 -75 -25 -116 -111 -96 -207 13 -65 40 -99
105 -132 24 -12 56 -37 70 -55 48 -64 90 -71 421 -71 245 0 302 3 368 18 130
31 173 87 131 169 -13 25 -14 36 -5 50 6 10 11 43 11 74 0 46 -5 64 -26 91
-27 36 -71 63 -103 63 -12 0 -35 13 -53 29 -30 27 -33 34 -36 104 -4 71 -2 77
22 102 18 18 35 25 53 23 23 -3 29 -11 43 -56 17 -62 53 -98 105 -108 28 -5
40 -14 55 -44 11 -21 29 -41 40 -45 52 -17 113 26 144 99 32 78 39 153 34 388
-5 209 -7 239 -27 286 -38 93 -21 108 49 42 23 -22 49 -40 57 -40 8 0 31 -19
51 -41 47 -53 71 -62 125 -47 34 9 49 8 72 -3 39 -18 73 -81 84 -155 5 -32 23
-156 40 -274 17 -118 37 -258 46 -310 25 -156 23 -162 -56 -246 -53 -57 -68
-103 -50 -156 20 -61 50 -97 100 -123 28 -14 58 -36 67 -50 9 -14 32 -35 53
-47 33 -21 47 -23 171 -22 74 1 164 7 200 13 36 7 88 17 115 22 205 36 292
109 238 200 -16 27 -16 31 0 58 21 36 21 48 1 108 -15 45 -48 93 -65 93 -4 0
-23 10 -43 23 -29 18 -39 34 -56 92 -26 82 -20 99 36 103 l39 3 24 -63 c32
-87 84 -188 135 -268 33 -51 58 -76 102 -103 33 -19 73 -50 89 -67 65 -69 168
-95 316 -79 241 27 374 133 314 250 -13 23 -13 34 -4 52 7 12 11 41 10 65 -2
38 0 42 20 42 13 0 34 -11 48 -24 15 -14 47 -39 73 -58 26 -18 74 -54 105 -79
65 -51 154 -90 265 -116 103 -23 431 -24 543 -1 272 57 440 199 506 428 17 59
19 103 19 475 l0 410 25 38 c32 47 60 48 79 5 7 -18 36 -55 65 -81 28 -27 54
-60 57 -74 14 -52 -19 -510 -50 -703 -21 -131 -30 -152 -86 -183 -133 -75
-126 -238 12 -308 21 -11 52 -35 70 -55 48 -52 97 -73 222 -95 150 -27 442
-28 507 -3 57 22 76 39 90 81 10 31 9 39 -11 65 -20 27 -21 32 -8 66 18 47 15
112 -7 146 -10 14 -39 42 -66 62 -45 33 -54 49 -50 89 0 6 8 82 16 170 44 445
57 503 121 554 37 29 53 26 69 -11 17 -41 57 -79 113 -107 23 -12 48 -33 54
-46 16 -35 89 -69 130 -60 74 17 122 64 180 178 24 47 36 58 57 54 11 -1 15
-22 17 -77 2 -73 13 -222 34 -460 13 -156 6 -182 -63 -216 -66 -33 -85 -50
-103 -93 -32 -77 -4 -172 65 -215 22 -14 44 -26 49 -26 5 0 25 -18 45 -40 62
-69 86 -75 302 -75 360 0 628 65 680 164 19 39 19 66 -2 101 -14 24 -15 34 -5
55 31 67 -3 181 -61 208 -18 8 -56 22 -85 32 -30 10 -59 26 -68 40 -9 14 -22
88 -34 191 -10 93 -29 252 -42 353 l-22 183 23 19 c32 26 47 24 68 -11 10 -17
43 -48 73 -68 30 -20 79 -58 108 -84 53 -47 55 -48 121 -48 79 0 121 22 153
80 16 28 18 46 13 95 -4 33 -6 69 -6 80 7 138 -8 222 -55 315 -71 140 -221
260 -324 260 -20 0 -70 -12 -111 -26 -90 -31 -112 -34 -509 -80 -257 -29 -334
-34 -420 -29 -81 5 -113 3 -140 -9 -49 -20 -116 -71 -132 -99 -77 -139 -85
-145 -136 -102 -17 14 -36 25 -44 25 -8 0 -18 4 -24 9 -16 17 -155 49 -260 60
-210 24 -389 12 -482 -31 -56 -27 -71 -15 -52 41 62 188 -144 287 -527 253
-145 -12 -202 -30 -255 -80 -41 -39 -54 -86 -43 -157 7 -51 39 -87 106 -119
24 -12 52 -34 63 -49 20 -28 21 -41 21 -380 0 -341 -1 -353 -22 -392 -50 -93
-127 -134 -251 -135 -63 0 -92 5 -121 20 -54 27 -105 90 -133 163 -22 59 -23
75 -23 298 l0 235 27 40 c17 27 45 50 81 68 74 38 94 84 62 146 -11 22 -12 35
-4 60 18 51 7 133 -24 174 -31 39 -107 78 -187 95 -86 19 -440 23 -537 7z
m394 -46 c147 -12 216 -34 270 -86 38 -36 43 -46 43 -84 0 -36 -6 -50 -32 -77
-18 -18 -40 -33 -49 -33 -10 0 -33 -15 -52 -33 -47 -44 -49 -65 -45 -428 3
-262 6 -309 21 -343 19 -44 14 -76 -12 -76 -9 0 -26 -6 -36 -14 -17 -12 -16
-16 25 -74 62 -89 120 -125 242 -148 152 -29 314 12 402 101 79 80 109 176
104 337 -3 77 -6 92 -18 89 -8 -2 -26 -5 -40 -5 l-25 -1 -5 265 c-6 310 -3
299 -108 355 -93 48 -113 95 -73 161 32 52 109 83 243 96 223 23 410 -16 458
-94 37 -61 21 -102 -62 -155 -93 -60 -92 -55 -93 -302 -1 -122 -5 -216 -11
-218 -5 -2 -24 -12 -42 -21 l-33 -17 -4 -165 c-3 -178 -15 -241 -61 -332 -46
-90 -146 -183 -247 -230 -184 -85 -526 -100 -742 -33 -111 34 -188 82 -273
172 -69 73 -73 76 -98 64 -43 -19 -60 -6 -90 72 l-28 72 -6 410 c-4 296 -8
416 -17 431 -7 12 -35 41 -62 64 -67 56 -83 120 -46 181 13 22 89 63 145 78
97 26 290 35 457 21z m3725 -27 c197 -78 344 -364 266 -519 -30 -61 -82 -94
-157 -101 -52 -5 -65 -2 -104 21 -25 14 -68 56 -98 93 -98 127 -132 145 -172
91 -22 -29 -22 -16 28 -438 22 -184 24 -174 -31 -165 l-47 7 7 -34 c4 -18 13
-84 21 -146 24 -185 69 -255 186 -284 50 -13 54 -16 54 -44 0 -26 -7 -33 -66
-62 -177 -89 -690 -125 -771 -54 -28 24 -21 41 26 61 24 11 60 35 79 55 29 29
37 45 43 92 6 55 -2 373 -15 509 l-6 70 -47 22 c-52 25 -50 17 -68 200 -11
111 -25 147 -61 151 -30 3 -66 -33 -101 -102 -45 -88 -77 -126 -108 -126 -16
0 -32 5 -36 11 -4 7 -23 9 -49 6 -30 -5 -51 -1 -77 13 -19 10 -52 22 -72 25
-44 9 -56 28 -56 90 0 148 123 387 217 423 16 6 111 13 213 16 102 3 214 10
250 15 36 5 164 21 285 35 228 27 249 31 350 65 74 25 66 24 117 4z m-6822
-18 c91 0 267 4 391 8 l225 8 41 -36 c88 -77 142 -246 119 -372 -10 -55 -85
-133 -128 -133 -47 0 -61 11 -164 129 -68 77 -179 110 -372 111 -91 0 -95 -1
-122 -30 -33 -35 -39 -61 -42 -203 -3 -122 -3 -122 73 -132 85 -12 120 10 143
90 29 98 89 141 160 111 80 -33 120 -155 114 -341 l-3 -100 -42 3 c-41 2 -43
1 -43 -25 0 -53 -41 -172 -62 -179 -29 -9 -48 14 -48 58 0 75 -48 143 -119
167 -48 16 -155 14 -197 -4 -49 -20 -61 -57 -68 -208 -7 -136 4 -236 33 -297
20 -42 87 -91 138 -99 34 -6 38 -9 38 -36 0 -28 -3 -30 -75 -49 -64 -16 -114
-19 -345 -20 -236 -1 -276 1 -322 17 -28 10 -54 25 -57 34 -10 26 3 51 31 58
42 10 93 55 117 104 17 33 27 78 35 161 13 132 16 228 9 235 -3 3 -17 0 -31
-6 -57 -26 -57 -26 -57 289 0 390 -5 410 -111 466 -58 31 -84 79 -68 127 17
48 27 59 84 86 l50 24 255 -8 c140 -4 329 -8 420 -8z m1950 -236 c81 -18 113
-30 163 -64 120 -80 172 -180 171 -325 -1 -107 -23 -156 -105 -244 -32 -35
-59 -70 -59 -79 0 -9 17 -19 48 -27 147 -36 229 -115 291 -280 28 -74 27 -90
-5 -90 -14 0 -34 -5 -44 -10 -18 -10 -18 -12 7 -61 30 -56 72 -96 111 -105 47
-10 52 -13 52 -32 0 -57 -177 -124 -333 -125 -92 0 -132 16 -198 79 -33 33
-91 133 -123 215 -12 30 -20 38 -52 44 -55 10 -71 21 -90 60 -20 42 -71 94
-100 101 -12 3 -36 4 -55 2 -29 -3 -36 -8 -45 -38 -12 -36 -38 -50 -57 -31
-18 18 -37 13 -37 -10 0 -35 50 -266 65 -303 16 -38 57 -76 104 -96 26 -10 31
-18 29 -38 -4 -31 -56 -51 -233 -87 -120 -25 -333 -36 -382 -21 -41 13 -39 44
5 90 76 77 88 177 48 421 -9 55 -19 120 -22 145 -8 52 -19 70 -45 70 -10 0
-29 10 -42 23 -20 18 -26 38 -36 117 -28 235 -64 316 -150 337 -82 19 -103
112 -39 176 67 66 147 91 328 102 58 3 184 21 280 40 96 18 209 38 250 44 41
6 86 13 100 15 59 8 105 5 200 -15z m3120 6 c122 -20 159 -32 211 -68 107 -71
105 -155 -5 -210 -30 -16 -65 -41 -76 -57 -17 -24 -29 -29 -68 -32 l-47 -3 -7
-50 c-4 -27 -16 -133 -27 -235 -43 -405 -51 -572 -30 -627 13 -35 55 -80 92
-99 22 -12 28 -21 25 -41 -5 -47 -55 -56 -268 -49 -179 5 -271 18 -355 48 -34
13 -40 20 -43 46 -2 21 1 32 9 32 7 0 30 12 51 26 56 39 86 137 107 349 7 61
16 146 21 190 8 71 24 306 25 360 0 17 -6 20 -42 17 -39 -3 -43 -2 -43 20 0
56 -23 102 -75 152 -86 83 -93 112 -42 170 53 62 109 74 322 75 113 0 211 -5
265 -14z m-4924 -210 c4 -8 1 -21 -5 -29 -7 -8 -19 -38 -29 -67 l-17 -54 -45
0 c-42 0 -45 2 -42 25 4 41 37 94 72 118 38 26 58 28 66 7z m271 -717 c-3 -8
-6 -5 -6 6 -1 11 2 17 5 13 3 -3 4 -12 1 -19z m1353 -643 c0 -8 -4 -15 -10
-15 -5 0 -7 7 -4 15 4 8 8 15 10 15 2 0 4 -7 4 -15z m2810 -5 c0 -5 -4 -10
-10 -10 -5 0 -10 5 -10 10 0 6 5 10 10 10 6 0 10 -4 10 -10z"/>
<path d="M7010 14375 c-16 -19 -16 -36 -1 -195 18 -202 16 -197 93 -177 92 25
124 75 114 176 -16 148 -59 211 -146 211 -30 0 -52 -5 -60 -15z m146 -162 c3
-16 8 -34 10 -42 7 -20 -16 -84 -34 -98 -9 -7 -26 -13 -37 -13 -20 0 -23 7
-29 76 -7 85 3 103 56 104 22 0 29 -6 34 -27z"/>
<path d="M4500 12350 c20 -13 43 -13 35 0 -3 6 -16 10 -28 10 -18 0 -19 -2 -7
-10z"/>
<path d="M4717 12249 c7 -7 15 -10 18 -7 3 3 -2 9 -12 12 -14 6 -15 5 -6 -5z"/>
<path d="M4948 12153 c7 -3 16 -2 19 1 4 3 -2 6 -13 5 -11 0 -14 -3 -6 -6z"/>
<path d="M5020 12120 c0 -5 7 -10 16 -10 8 0 12 5 9 10 -3 6 -10 10 -16 10 -5
0 -9 -4 -9 -10z"/>
<path d="M12685 12380 c-3 -5 -2 -10 4 -10 5 0 13 5 16 10 3 6 2 10 -4 10 -5
0 -13 -4 -16 -10z"/>
<path d="M12630 12350 c0 -5 7 -7 15 -4 8 4 15 8 15 10 0 2 -7 4 -15 4 -8 0
-15 -4 -15 -10z"/>
<path d="M12558 12313 c6 -2 18 -2 25 0 6 3 1 5 -13 5 -14 0 -19 -2 -12 -5z"/>
<path d="M12356 12221 c-4 -5 3 -7 14 -4 23 6 26 13 6 13 -8 0 -17 -4 -20 -9z"/>
<path d="M12198 12153 c7 -3 16 -2 19 1 4 3 -2 6 -13 5 -11 0 -14 -3 -6 -6z"/>
<path d="M6200 11790 c0 -6 7 -10 15 -10 8 0 15 2 15 4 0 2 -7 6 -15 10 -8 3
-15 1 -15 -4z"/>
<path d="M6718 11693 c12 -2 30 -2 40 0 9 3 -1 5 -23 4 -22 0 -30 -2 -17 -4z"/>
<path d="M10423 11693 c9 -2 25 -2 35 0 9 3 1 5 -18 5 -19 0 -27 -2 -17 -5z"/>
<path d="M13054 4182 c-13 -8 -32 -81 -68 -262 -14 -69 -33 -159 -41 -200 -54
-251 -97 -461 -104 -500 -5 -25 -18 -90 -30 -145 -23 -104 -33 -152 -58 -270
-8 -38 -21 -99 -28 -135 -8 -36 -16 -76 -18 -90 -3 -14 -17 -81 -32 -150 -15
-69 -31 -145 -35 -170 -4 -25 -13 -66 -20 -91 -25 -87 -122 -79 963 -79 760 0
967 3 974 13 5 6 22 73 37 147 16 74 34 155 41 180 7 25 17 68 23 95 7 28 30
133 52 235 23 102 52 230 65 285 14 55 36 154 50 220 14 66 30 136 35 155 5
19 17 67 25 105 9 39 20 88 25 110 5 22 16 74 25 115 9 41 20 91 26 110 5 19
18 76 29 125 11 50 26 112 32 138 10 40 10 50 -2 57 -18 11 -1950 13 -1966 2z
m206 -226 c0 -7 18 -18 41 -25 38 -11 43 -11 64 9 26 25 45 22 90 -15 25 -20
28 -28 19 -42 -15 -24 -62 -29 -70 -9 -8 22 -37 20 -59 -4 -12 -13 -25 -17
-44 -14 -19 4 -32 0 -45 -15 -37 -41 -75 -17 -56 35 6 14 10 36 10 49 0 26 26
58 41 50 5 -4 9 -12 9 -19z m1005 -39 c57 -2 60 -3 60 -27 0 -21 -6 -25 -57
-36 -50 -10 -61 -9 -98 8 -38 18 -51 19 -123 9 -131 -18 -395 -10 -362 11 39
24 290 49 430 41 50 -2 117 -5 150 -6z m555 -7 c0 -31 -38 -40 -174 -40 -90 0
-127 4 -142 14 -42 32 2 42 194 44 116 2 122 1 122 -18z m-1203 -22 l28 -12
-29 -4 c-41 -5 -76 6 -76 24 0 17 23 15 77 -8z m-75 -295 c24 -21 24 -63 1
-63 -10 0 -26 7 -37 15 -16 12 -22 11 -48 -8 -22 -17 -33 -19 -46 -11 -24 16
-166 12 -185 -4 -9 -8 -24 -12 -35 -10 -10 2 -31 -3 -46 -11 -38 -21 -52 -4
-36 43 13 39 41 53 86 42 15 -4 32 -2 40 5 8 7 27 9 46 5 42 -8 47 -8 81 0 17
4 38 1 53 -7 22 -11 29 -11 52 4 34 21 51 21 74 0z m1197 -18 c7 -8 11 -20 8
-29 -5 -13 -22 -14 -109 -9 -72 4 -108 10 -121 21 -9 9 -14 19 -10 23 22 21
208 16 232 -6z m-631 -16 c7 -37 -19 -41 -242 -37 -216 3 -246 8 -234 40 5 11
53 13 239 13 206 0 234 -2 237 -16z m162 -4 c0 -8 -4 -15 -10 -15 -5 0 -10 7
-10 15 0 8 5 15 10 15 6 0 10 -7 10 -15z m-1230 -319 c0 -44 15 -54 44 -27 27
25 52 27 60 5 6 -16 18 -16 74 2 40 12 24 -33 -21 -59 -33 -19 -41 -20 -73 -8
-33 12 -37 11 -59 -13 -25 -27 -49 -33 -61 -15 -11 19 -14 123 -2 136 20 25
38 15 38 -21z m1610 -41 c10 -12 10 -18 0 -30 -17 -21 -158 -21 -186 -1 -37
28 -13 35 142 44 18 1 37 -5 44 -13z m-682 -10 c2 -2 -1 -12 -7 -23 -8 -15
-26 -22 -72 -29 -107 -14 -559 13 -582 36 -28 28 9 31 331 26 179 -3 328 -8
330 -10z m217 -10 c0 -25 -37 -32 -54 -11 -18 21 -4 38 27 34 19 -2 27 -9 27
-23z m-1164 -401 c10 -9 42 -18 76 -20 177 -13 327 -14 483 -5 96 6 189 7 205
3 36 -10 44 -36 16 -52 -18 -9 -453 -26 -581 -22 -110 3 -228 11 -245 17 -14
4 -30 -3 -53 -27 -32 -31 -35 -31 -60 -17 -33 18 -38 48 -17 88 17 35 48 41
64 14 9 -16 12 -16 36 10 29 31 51 34 76 11z m1515 -39 c18 -14 18 -16 1 -29
-13 -10 -71 -16 -220 -21 -179 -6 -207 -5 -245 10 -80 33 -49 40 199 45 129 3
237 7 240 8 3 1 14 -5 25 -13z m-1685 -369 c44 -10 73 -39 65 -64 -8 -25 -27
-28 -57 -9 -18 11 -23 8 -48 -22 -18 -22 -32 -31 -40 -26 -13 8 -12 23 11 107
11 41 14 45 28 34 8 -7 27 -16 41 -20z m1087 5 c20 -10 27 -10 47 3 28 18 61
21 70 6 3 -5 35 -10 71 -10 57 0 64 -2 64 -19 0 -11 -4 -22 -9 -25 -23 -15
-105 -18 -140 -6 -35 11 -41 10 -69 -10 l-30 -23 -28 22 c-14 11 -39 21 -54
21 -31 0 -55 23 -47 44 7 18 91 16 125 -3z m-188 -13 c0 -43 -27 -46 -402 -51
-293 -4 -359 -3 -368 9 -7 7 -9 17 -6 23 15 23 224 37 533 37 223 -1 243 -2
243 -18z m740 -3 c10 -12 10 -18 0 -30 -11 -13 -34 -15 -119 -13 -98 3 -106 4
-106 23 0 18 9 20 100 26 55 3 103 6 106 7 4 1 12 -5 19 -13z"/>
<path d="M2482 9332 c-18 -12 -18 -4442 0 -4454 17 -10 12189 -10 12206 1 11
6 13 409 13 2225 0 1219 -3 2221 -6 2226 -8 12 -12194 14 -12213 2z m11980
-124 c15 -12 17 -189 20 -2081 3 -2038 3 -2069 -16 -2083 -17 -12 -837 -14
-5901 -14 l-5882 0 -19 21 c-19 21 -19 67 -16 2073 2 1128 5 2059 8 2068 3 9
13 19 22 21 9 3 2661 5 5893 6 4686 1 5878 -2 5891 -11z"/>
<path d="M3072 9158 c-18 -18 -16 -24 25 -69 20 -22 47 -69 59 -102 25 -70
108 -276 129 -322 14 -30 62 -149 105 -257 12 -32 26 -58 31 -58 5 0 9 -15 9
-34 0 -19 4 -38 10 -41 10 -6 12 -3 49 100 13 33 26 67 31 76 5 9 50 120 100
245 51 126 98 243 105 259 7 17 20 46 29 65 8 19 29 51 46 70 18 20 30 43 28
55 -3 20 -10 20 -373 23 -280 2 -374 -1 -383 -10z m638 -120 c0 -24 -17 -40
-36 -34 -11 3 -26 1 -34 -4 -13 -9 -12 -13 8 -29 21 -19 32 -81 14 -81 -12 0
-44 -76 -51 -118 -7 -38 -25 -47 -29 -14 -2 12 -10 22 -17 22 -8 0 -15 13 -17
32 -2 27 -8 33 -35 40 -19 5 -33 15 -33 23 0 8 -4 15 -10 15 -5 0 -10 -12 -10
-26 0 -22 -4 -26 -24 -22 -19 4 -26 0 -30 -18 -13 -51 -78 -19 -81 40 -1 17
-9 48 -18 69 l-17 37 30 0 c17 0 30 -5 31 -12 0 -9 2 -10 5 -1 4 8 14 9 35 3
16 -5 29 -6 29 -2 0 4 10 -5 23 -20 33 -38 127 -44 127 -8 0 29 28 25 36 -5 3
-14 12 -25 20 -25 22 0 17 47 -7 71 -20 20 -34 22 -163 23 -77 2 -149 -2 -160
-7 -12 -6 -22 -5 -29 2 -6 6 -17 11 -24 11 -30 0 -22 -31 26 -102 33 -48 54
-92 60 -122 5 -26 15 -52 23 -59 17 -14 38 -65 36 -87 -3 -36 15 -80 33 -80
14 0 19 -7 19 -31 0 -16 4 -28 9 -25 11 7 21 -18 21 -54 0 -37 -18 -48 -29
-18 -5 13 -16 30 -25 37 -9 7 -16 22 -16 33 0 10 -7 30 -16 43 -9 14 -14 36
-11 51 3 18 -1 29 -14 37 -11 7 -19 21 -19 32 0 12 -7 30 -15 41 -8 10 -15 32
-15 47 0 20 -6 30 -20 34 -13 4 -20 14 -20 32 0 14 -7 35 -15 45 -8 11 -15 30
-15 42 0 13 -7 29 -15 37 -7 8 -17 27 -21 43 -4 16 -13 35 -21 42 -7 7 -13 18
-13 23 0 5 111 9 270 9 209 0 270 -3 270 -12z m-220 -238 c0 -10 9 -22 21 -25
17 -6 20 -12 15 -33 -11 -47 -11 -55 2 -59 7 -3 12 4 12 15 0 11 7 22 15 26
20 7 20 -43 0 -70 -8 -10 -15 -32 -15 -48 0 -20 -4 -27 -14 -23 -10 4 -16 -5
-20 -29 -7 -35 -23 -45 -32 -19 -4 8 -12 15 -20 15 -15 0 -19 46 -6 68 11 16
42 5 42 -16 0 -8 3 -12 7 -9 4 4 6 25 6 47 -1 43 -23 73 -47 64 -12 -5 -16 0
-16 20 0 14 -5 26 -11 26 -6 0 -17 7 -25 15 -9 8 -11 15 -5 15 6 0 11 10 11
21 0 17 5 20 25 17 14 -3 28 -1 31 4 8 13 24 -1 24 -22z m-30 -124 c0 -24 -17
-28 -23 -6 -3 13 0 20 9 20 8 0 14 -6 14 -14z"/>
<path d="M3573 8895 c-20 -21 -12 -56 12 -53 24 4 32 33 13 51 -11 11 -16 11
-25 2z"/>
<path d="M3375 8880 c4 -6 11 -8 16 -5 14 9 11 15 -7 15 -8 0 -12 -5 -9 -10z"/>
<path d="M4102 9154 c-14 -10 -13 -15 5 -40 37 -52 62 -69 82 -57 22 14 568
16 576 2 9 -14 40 6 71 47 19 24 24 38 17 45 -15 15 -731 18 -751 3z"/>
<path d="M6157 9163 c-13 -12 -7 -40 16 -75 13 -19 40 -74 59 -124 20 -49 66
-163 103 -254 37 -91 94 -229 125 -308 32 -79 61 -144 66 -144 14 -2 25 23
149 327 20 50 49 122 65 160 15 39 45 111 65 160 42 104 66 155 97 208 20 32
21 39 8 47 -17 11 -743 14 -753 3z"/>
<path d="M7183 9155 c-15 -11 -14 -15 7 -46 13 -19 28 -37 33 -40 7 -5 50
-106 167 -394 15 -38 49 -122 75 -185 27 -63 56 -137 65 -165 18 -54 43 -66
48 -25 3 20 47 133 92 235 5 11 21 52 36 90 14 39 37 93 50 122 13 28 24 55
24 59 0 4 15 43 34 88 18 45 39 96 46 114 7 18 28 52 46 75 32 39 44 75 27 78
-5 1 -171 3 -371 4 -270 1 -367 -1 -379 -10z m620 -112 c-7 -2 -13 -11 -13
-19 0 -8 -4 -14 -10 -14 -5 0 -10 2 -10 4 0 2 -3 11 -6 20 -5 12 0 16 22 15
16 0 23 -3 17 -6z"/>
<path d="M9237 9163 c-16 -16 -4 -46 33 -83 22 -22 40 -43 40 -46 0 -7 50
-135 107 -277 20 -48 40 -90 45 -93 4 -3 8 -15 8 -28 0 -12 7 -31 15 -42 8
-10 15 -25 15 -32 0 -8 6 -28 14 -45 33 -73 54 -125 72 -177 25 -75 31 -79 44
-29 6 24 20 62 30 84 10 22 26 60 36 85 10 25 26 64 36 87 10 23 18 45 18 48
0 4 14 36 30 72 17 35 30 68 30 72 0 8 26 72 50 126 22 49 50 127 50 141 0 30
-22 8 -41 -41 -11 -28 -29 -67 -40 -87 -10 -20 -19 -46 -19 -57 0 -11 -14 -43
-31 -72 -16 -28 -33 -65 -36 -81 -3 -15 -10 -31 -14 -34 -5 -3 -9 -19 -9 -36
0 -16 -9 -41 -20 -55 -11 -14 -20 -32 -20 -40 0 -8 -6 -27 -14 -41 -7 -15 -24
-51 -37 -80 -21 -48 -24 -51 -30 -30 -4 12 -15 51 -24 86 -10 34 -22 62 -27
62 -4 0 -8 6 -8 13 -1 6 -9 30 -20 52 -11 22 -19 47 -20 56 0 9 -7 22 -15 29
-8 7 -15 19 -15 28 0 26 -43 137 -57 145 -7 4 -13 18 -13 31 0 13 -7 29 -15
36 -8 7 -15 27 -15 46 0 23 -6 37 -21 44 -13 7 -19 19 -17 33 l3 22 298 1 298
2 25 23 c38 35 48 58 33 75 -9 12 -72 14 -379 14 -201 0 -370 -3 -373 -7z"/>
<path d="M11300 9162 c-20 -7 -9 -43 23 -77 28 -31 36 -34 62 -27 38 10 555 9
576 -1 12 -6 27 2 53 29 36 37 47 74 24 74 -122 3 -731 4 -738 2z"/>
<path d="M13353 9163 c-22 -8 -14 -34 23 -80 20 -24 49 -77 65 -118 27 -72
101 -250 119 -290 5 -11 19 -45 30 -75 12 -30 32 -78 46 -107 13 -28 24 -58
24 -65 0 -8 9 -31 20 -53 11 -21 23 -54 26 -72 9 -45 24 -37 45 23 30 86 50
137 80 209 17 39 34 79 39 90 4 11 15 36 24 57 9 20 16 39 16 43 0 3 18 50 40
103 53 126 54 129 76 182 10 25 33 63 51 84 37 44 41 61 17 70 -19 7 -723 7
-741 -1z m635 -143 c-13 -38 -28 -48 -40 -26 -7 12 -14 14 -26 7 -10 -5 -24
-9 -32 -9 -65 4 -110 -3 -110 -17 0 -8 5 -15 10 -15 6 0 10 -11 10 -25 0 -14
6 -25 13 -25 7 0 20 -14 28 -32 15 -35 39 -49 39 -24 0 9 -7 16 -15 16 -8 0
-15 6 -16 13 -3 44 -7 60 -20 68 -10 6 -11 11 -2 20 8 8 14 6 22 -10 7 -12 17
-21 24 -21 7 0 18 -14 26 -32 13 -28 12 -40 -3 -97 -10 -36 -26 -74 -37 -84
-10 -10 -19 -26 -19 -37 0 -10 -4 -22 -10 -25 -13 -8 -13 36 0 70 10 27 7 31
-35 37 -16 2 -20 -2 -19 -22 1 -14 4 -33 9 -42 12 -29 -13 -21 -44 13 -16 17
-41 32 -56 33 -15 2 -30 9 -34 15 -11 17 -41 2 -41 -20 0 -10 9 -23 20 -29 11
-6 20 -17 20 -25 0 -8 15 -17 35 -21 36 -6 48 -30 20 -40 -8 -4 -15 -13 -15
-20 0 -12 -4 -12 -20 -4 -11 6 -20 17 -20 24 0 9 -7 12 -19 9 -15 -4 -20 2
-25 30 -4 19 -13 40 -21 47 -21 17 -19 42 6 63 12 11 18 25 15 33 -3 9 -6 22
-6 30 0 26 -20 14 -27 -16 -8 -41 -21 -47 -29 -14 -5 20 -2 31 12 41 25 19 27
53 3 53 -11 0 -19 -7 -19 -15 0 -23 -17 -18 -23 7 -7 26 26 68 54 68 28 0 32
19 5 26 -37 9 -60 1 -71 -24 -13 -29 -25 -28 -25 2 0 14 -4 27 -9 30 -5 3 -11
15 -14 26 -5 20 -1 20 268 20 l274 0 -11 -30z m-43 -70 c0 -32 -30 -39 -45
-10 -14 26 -4 42 23 38 16 -2 22 -10 22 -28z m-125 -317 c0 -22 -11 -37 -27
-40 -13 -3 -18 38 -6 50 13 13 33 7 33 -10z m-49 -71 c13 -15 8 -47 -16 -112
-23 -61 -36 -76 -47 -55 -11 19 -2 52 23 84 23 29 25 71 4 71 -8 0 -19 9 -25
19 -14 28 19 48 37 23 7 -9 17 -23 24 -30z m-71 -67 c0 -13 -4 -27 -10 -30
-11 -7 -25 39 -15 55 10 16 25 2 25 -25z"/>
<path d="M13655 8989 c-10 -16 1 -22 40 -24 20 0 37 5 39 12 3 7 2 13 -2 14
-4 0 -21 2 -39 5 -18 2 -35 -1 -38 -7z"/>
<path d="M13662 8930 c0 -14 2 -19 5 -12 2 6 2 18 0 25 -3 6 -5 1 -5 -13z"/>
<path d="M13670 8875 c0 -8 -9 -15 -20 -15 -11 0 -20 -4 -20 -10 0 -5 9 -10
20 -10 11 0 20 -6 21 -12 1 -7 5 -2 9 12 11 36 11 50 0 50 -5 0 -10 -7 -10
-15z"/>
<path d="M13712 8828 c0 -33 3 -39 21 -36 14 2 20 12 22 35 2 26 -2 32 -21 36
-21 4 -23 0 -22 -35z"/>
<path d="M13805 8840 c-3 -5 2 -21 11 -36 16 -23 18 -24 27 -8 7 13 7 19 -1
22 -7 2 -12 10 -12 18 0 16 -16 19 -25 4z"/>
<path d="M5127 9146 c-3 -7 8 -27 23 -45 23 -25 34 -29 52 -23 13 4 158 5 323
2 l299 -5 28 23 c16 13 28 32 28 43 0 18 -12 19 -374 19 -307 0 -375 -2 -379
-14z"/>
<path d="M10265 9150 c-3 -6 3 -24 15 -40 l21 -30 339 0 339 0 21 30 c12 16
18 34 15 40 -4 6 -138 10 -375 10 -237 0 -371 -4 -375 -10z"/>
<path d="M4200 8976 c0 -14 4 -27 8 -30 5 -3 6 8 4 25 -5 35 -12 38 -12 5z"/>
<path d="M11927 8993 c-4 -3 -7 -22 -7 -42 l1 -36 14 25 c22 39 16 78 -8 53z"/>
<path d="M4717 8928 c-23 -51 -27 -67 -18 -72 4 -3 15 19 23 49 17 62 16 70
-5 23z"/>
<path d="M11415 8913 c8 -31 13 -39 20 -31 9 9 -6 58 -17 58 -6 0 -7 -11 -3
-27z"/>
<path d="M4226 8911 c-3 -5 0 -16 8 -23 7 -8 17 -30 21 -49 11 -51 24 -71 25
-36 0 32 -45 123 -54 108z"/>
<path d="M11895 8897 c-4 -10 -5 -21 -1 -24 10 -10 18 4 13 24 -4 17 -4 17
-12 0z"/>
<path d="M11451 8843 c-1 -12 6 -34 13 -50 8 -15 18 -37 22 -48 6 -16 8 -17
11 -4 2 9 -7 40 -21 70 -16 36 -25 47 -25 32z"/>
<path d="M11862 8818 c-6 -6 -12 -23 -12 -37 l1 -26 15 28 c17 32 15 54 -4 35z"/>
<path d="M4292 8760 c0 -14 2 -19 5 -12 2 6 2 18 0 25 -3 6 -5 1 -5 -13z"/>
<path d="M4637 8737 c-4 -10 -7 -28 -6 -40 0 -21 1 -21 10 2 5 14 8 32 7 40
-3 13 -5 13 -11 -2z"/>
<path d="M11812 8698 c-12 -24 -22 -54 -21 -68 l0 -25 10 24 c5 13 16 39 25
57 24 50 12 60 -14 12z"/>
<path d="M4320 8681 c0 -11 5 -23 10 -26 6 -3 10 3 10 14 0 11 -4 23 -10 26
-5 3 -10 -3 -10 -14z"/>
<path d="M4607 8665 c-4 -8 -2 -17 3 -20 6 -4 10 3 10 14 0 25 -6 27 -13 6z"/>
<path d="M4350 8603 c0 -10 5 -25 10 -33 7 -11 10 -7 10 18 0 17 -4 32 -10 32
-5 0 -10 -8 -10 -17z"/>
<path d="M11546 8593 c9 -37 24 -53 24 -26 0 28 -10 53 -21 53 -5 0 -6 -12 -3
-27z"/>
<path d="M4566 8568 c-3 -13 -2 -26 3 -31 5 -5 11 5 13 22 5 36 -7 42 -16 9z"/>
<path d="M4386 8518 c3 -13 10 -30 15 -38 7 -12 8 -10 9 7 0 28 -10 53 -22 53
-5 0 -6 -10 -2 -22z"/>
<path d="M11581 8514 c0 -11 3 -14 6 -6 3 7 2 16 -1 19 -3 4 -6 -2 -5 -13z"/>
<path d="M4541 8484 c0 -11 3 -14 6 -6 3 7 2 16 -1 19 -3 4 -6 -2 -5 -13z"/>
<path d="M11726 8493 c-3 -3 -6 -19 -6 -34 0 -15 -4 -31 -10 -34 -5 -3 -10
-16 -9 -28 0 -14 2 -17 6 -7 5 16 33 80 39 92 6 9 -12 19 -20 11z"/>
<path d="M4513 8440 c-7 -11 -13 -30 -13 -42 1 -22 2 -21 16 5 19 35 16 68 -3
37z"/>
<path d="M11611 8448 c0 -7 4 -22 9 -33 8 -18 9 -17 9 7 1 15 -3 30 -9 33 -5
3 -10 0 -9 -7z"/>
<path d="M4422 8430 c0 -14 2 -19 5 -12 2 6 2 18 0 25 -3 6 -5 1 -5 -13z"/>
<path d="M4454 8365 c-9 -21 6 -67 24 -73 18 -6 16 63 -3 78 -12 10 -16 9 -21
-5z"/>
<path d="M11640 8360 c0 -6 8 -27 17 -48 l17 -37 4 33 c3 32 -11 62 -29 62 -5
0 -9 -5 -9 -10z"/>
<path d="M11575 7216 c-149 -32 -287 -115 -368 -225 -60 -81 -117 -196 -117
-236 0 -19 -4 -37 -10 -40 -5 -3 -49 -7 -97 -9 -177 -7 -310 -64 -437 -186
l-82 -79 -159 5 c-210 5 -244 -2 -196 -44 26 -23 41 -75 41 -142 0 -49 -5 -66
-32 -106 -49 -72 -104 -107 -178 -112 -55 -4 -61 -6 -58 -26 2 -17 14 -23 64
-32 80 -14 120 -38 164 -99 33 -47 35 -53 35 -132 0 -72 -3 -85 -23 -105 -21
-22 -31 -23 -203 -27 -174 -3 -182 -2 -211 19 -29 21 -30 21 -50 3 -17 -16
-42 -18 -188 -21 -134 -3 -174 -1 -197 11 -22 12 -33 13 -48 4 -17 -10 -207
-14 -410 -8 -16 0 -108 -1 -204 -4 -180 -4 -201 -1 -232 37 -16 20 -16 20 -43
-8 l-26 -29 -183 -3 -182 -4 -25 27 c-22 23 -25 37 -28 108 -3 78 -2 84 30
132 22 33 52 61 91 84 73 43 78 73 17 97 -52 21 -127 104 -136 151 -4 19 -4
64 -1 100 4 49 10 70 28 89 30 32 17 41 -59 42 -59 0 -82 -10 -82 -35 0 -10 9
-14 32 -11 l32 3 1 -398 c1 -219 -3 -400 -7 -403 -5 -3 -15 0 -23 6 -12 10
-15 44 -15 166 0 125 -3 155 -16 168 -8 9 -11 16 -5 16 7 0 11 33 11 92 0 70
-4 96 -16 109 -13 14 -16 41 -16 131 1 62 -1 121 -4 130 -7 24 -53 31 -192 30
-96 -2 -128 1 -145 13 -12 8 -29 15 -38 15 -15 0 -165 88 -240 140 -61 43
-222 120 -302 145 -78 24 -98 27 -194 23 -84 -4 -119 -10 -157 -28 -73 -33
-132 -92 -145 -144 -18 -72 -32 -76 -146 -43 -244 73 -318 86 -471 87 -87 0
-147 -5 -180 -15 -79 -23 -174 -86 -218 -144 -38 -50 -40 -51 -92 -51 -61 0
-84 7 -84 25 0 8 -5 17 -11 21 -16 10 -2 -46 17 -67 8 -8 14 -32 14 -51 0 -20
6 -41 14 -47 10 -9 12 -32 8 -100 -5 -91 3 -151 17 -135 17 18 29 95 21 132
-5 20 -10 69 -12 107 -3 64 -1 70 17 70 18 0 20 -8 23 -72 3 -69 4 -73 26 -73
32 0 50 25 51 68 0 20 6 38 15 43 34 19 108 50 116 48 5 -1 26 -1 47 0 30 1
37 5 37 21 0 11 -4 20 -10 20 -5 0 -10 9 -10 20 0 20 6 23 85 35 34 6 37 8 21
17 -27 15 -102 3 -174 -28 -34 -15 -65 -24 -69 -20 -13 13 34 60 92 92 138 77
303 77 590 -1 210 -56 269 -57 474 -5 24 6 52 8 62 5 24 -8 49 -55 49 -92 0
-58 -42 -165 -102 -260 -42 -67 -44 -79 -9 -68 38 12 114 142 132 225 4 19 13
54 18 78 10 36 8 49 -8 85 -27 60 -53 79 -112 85 -87 8 -33 22 84 21 60 -1
110 1 113 4 6 6 -130 37 -163 37 -13 0 -44 -5 -68 -11 -25 -6 -52 -8 -61 -5
-15 6 -14 9 6 31 13 14 42 30 64 37 61 17 229 13 267 -6 18 -9 39 -16 46 -16
22 0 197 -93 293 -155 163 -106 276 -145 415 -145 88 0 115 -16 115 -66 0 -46
-60 -157 -105 -194 -8 -7 -15 -19 -15 -26 0 -21 28 -17 47 6 27 31 43 25 43
-16 0 -24 4 -34 13 -31 7 2 12 24 13 58 0 68 12 119 27 119 14 0 17 -636 3
-658 -4 -7 -13 -11 -19 -9 -9 3 -11 40 -9 128 2 68 -1 135 -6 148 l-9 25 -17
-27 c-15 -22 -16 -32 -7 -58 6 -18 11 -58 11 -90 0 -69 -11 -79 -88 -79 -27 0
-63 -7 -78 -15 -25 -13 -104 -15 -519 -15 -364 0 -494 3 -503 12 -9 9 -17 9
-34 -1 -36 -18 -922 -11 -963 8 -16 8 -41 15 -55 15 -19 1 -26 7 -28 26 -2 14
-7 29 -12 34 -14 14 -32 -34 -26 -69 4 -22 2 -34 -6 -37 -32 -12 -38 4 -38 91
0 63 -4 93 -16 110 -26 36 -35 12 -38 -93 -1 -58 -7 -101 -14 -108 -25 -25
-31 5 -22 97 14 129 12 210 -8 290 -16 67 -18 70 -45 67 -24 -3 -27 -7 -21
-25 3 -12 10 -26 15 -31 5 -6 9 -27 9 -47 0 -21 5 -41 11 -44 11 -7 11 -226 0
-244 -9 -13 -53 -29 -68 -24 -17 6 -16 37 1 71 19 37 49 204 39 211 -5 3 -26
19 -45 34 -30 23 -56 31 -140 43 -110 17 -164 41 -174 81 -14 53 51 103 136
103 61 0 130 -16 130 -30 0 -15 40 -22 55 -10 7 6 19 43 25 83 7 40 16 79 21
88 6 13 -4 25 -47 57 -44 33 -66 42 -112 47 -117 12 -160 25 -187 56 -32 39
-32 54 4 90 29 29 29 30 15 64 -10 26 -12 41 -4 55 12 23 13 50 0 70 -8 13
-11 13 -27 -2 -15 -15 -15 -22 -5 -51 30 -82 14 -97 -100 -97 -74 0 -97 -4
-137 -25 -27 -13 -59 -38 -72 -54 -13 -17 -34 -44 -47 -61 -30 -38 -48 -38
-70 0 -9 16 -20 30 -24 30 -14 0 -8 -27 10 -51 33 -44 62 -115 62 -155 0 -46
24 -142 39 -157 15 -15 14 -49 -2 -72 -40 -60 -47 -224 -12 -315 9 -25 19 -57
22 -72 l5 -28 -81 0 c-55 0 -81 4 -81 12 0 6 11 39 24 72 15 37 25 88 28 130
l3 69 -45 31 c-38 26 -61 33 -145 44 -103 13 -134 26 -161 67 -13 20 -14 28
-2 52 34 72 202 87 269 24 13 -12 27 -21 31 -21 17 0 46 85 51 152 6 66 6 67
-26 91 -54 41 -75 48 -162 57 -95 10 -129 23 -158 61 -18 25 -18 28 -3 58 9
17 20 31 24 31 27 1 32 18 16 55 -13 33 -14 45 -4 76 14 42 8 59 -21 59 -18 0
-19 -6 -17 -77 l3 -78 -105 -5 c-135 -6 -156 -17 -252 -134 -26 -31 -32 -46
-29 -77 1 -22 -2 -39 -8 -39 -5 0 -32 14 -59 31 -38 23 -66 32 -128 38 -93 10
-146 30 -169 64 -19 29 -9 57 31 92 22 19 23 22 8 50 -13 25 -13 36 -3 67 14
44 7 68 -21 68 -20 0 -21 -4 -18 -77 l3 -78 -105 -5 c-69 -4 -115 -11 -135
-22 -38 -20 -83 -64 -101 -100 -8 -15 -26 -30 -39 -33 -14 -3 -36 -7 -50 -10
l-25 -5 -2 -258 -3 -257 -40 -3 c-22 -2 -44 -7 -48 -11 -6 -6 -12 -660 -7
-809 0 -10 1175 -12 5858 -10 l5857 3 3 401 c2 390 2 401 -18 419 -19 17 -20
30 -20 265 0 207 -2 250 -15 260 -10 8 -49 11 -127 9 l-113 -2 -80 79 c-97 96
-186 143 -320 169 -101 20 -115 28 -115 61 0 61 -81 205 -160 285 -258 261
-694 244 -928 -36 -24 -28 -50 -64 -59 -81 -50 -92 -63 -122 -69 -161 -7 -51
-30 -68 -68 -53 -18 7 -26 17 -26 34 0 58 -85 215 -157 291 -144 152 -372 223
-578 181z m248 -71 l148 -14 77 -54 c122 -85 159 -162 52 -107 -27 14 -46 18
-53 12 -12 -9 -49 -17 -134 -28 -41 -6 -113 10 -113 25 0 11 -43 29 -96 41
-37 9 -50 7 -81 -10 -21 -11 -42 -20 -48 -21 -12 0 -78 -45 -159 -107 -31 -23
-66 -47 -79 -52 -19 -8 -19 -9 -3 -9 11 -1 48 16 83 37 35 20 85 49 111 64 35
20 61 28 100 28 28 0 52 -4 52 -8 0 -14 103 -52 141 -52 20 0 62 9 94 20 102
35 142 28 223 -42 18 -15 41 -28 52 -28 45 0 113 -93 87 -119 -7 -7 -20 -5
-44 10 -29 18 -43 20 -93 15 -43 -5 -69 -3 -96 9 -47 19 -92 19 -140 -1 -49
-21 -164 -21 -223 0 -60 22 -143 20 -189 -3 -20 -10 -82 -28 -137 -39 -88 -18
-103 -19 -129 -7 -24 13 -31 13 -49 0 -27 -19 -51 -19 -66 -1 -18 21 35 101
81 123 44 21 45 26 17 52 -13 12 -19 26 -15 38 12 36 91 103 145 122 29 10 56
22 60 27 14 20 83 66 119 79 48 18 124 18 305 0z m1358 -4 c86 -8 103 -13 152
-44 69 -44 147 -118 147 -140 0 -14 -7 -13 -54 8 -30 13 -56 22 -59 19 -10
-10 -123 -33 -162 -33 -22 -1 -50 5 -61 12 -107 62 -152 74 -193 53 -14 -8
-41 -20 -60 -27 -18 -7 -63 -35 -100 -64 -36 -28 -73 -54 -81 -58 -71 -36 -85
-46 -63 -47 21 0 41 10 177 94 79 48 126 48 218 2 74 -38 63 -38 232 8 52 14
62 14 95 0 20 -8 50 -28 66 -43 17 -16 42 -31 56 -34 45 -11 93 -51 103 -85
13 -48 -4 -61 -44 -32 -27 19 -39 21 -93 16 -45 -5 -74 -3 -106 9 -56 19 -94
19 -134 -2 -41 -21 -153 -20 -222 1 -67 21 -136 20 -193 -3 -102 -41 -255 -64
-278 -41 -7 7 -20 5 -41 -5 -30 -15 -63 -12 -63 7 0 37 73 128 102 128 24 0
23 22 -2 38 -42 26 27 112 125 157 39 18 84 44 102 59 68 57 107 68 228 61 61
-3 153 -9 206 -14z m-103 -181 c9 -5 31 -15 47 -22 23 -8 26 -12 12 -15 -19
-5 -96 27 -97 40 0 10 17 9 38 -3z m-1248 -31 c12 -7 11 -8 -6 -9 -12 0 -35 7
-50 16 l-29 15 35 -6 c19 -4 42 -11 50 -16z m-53 -229 l125 -30 80 25 c43 14
90 25 103 25 55 0 34 -45 -32 -69 -44 -16 -162 -90 -182 -114 -19 -24 -27 -22
-125 23 -116 54 -144 53 -266 -10 -38 -19 -65 -15 -90 15 -7 9 -30 25 -49 35
-42 21 -86 66 -74 73 5 3 41 5 79 4 55 -1 81 3 129 24 82 36 147 36 302 -1z
m206 23 c-13 -2 -35 -2 -50 0 -16 2 -5 4 22 4 28 0 40 -2 28 -4z m1092 -17
c44 -9 95 -22 113 -27 33 -10 65 -4 140 27 38 16 80 18 102 4 20 -12 12 -19
-95 -75 -49 -26 -107 -62 -128 -81 -20 -19 -43 -34 -49 -34 -11 0 -62 23 -150
67 -44 22 -109 16 -174 -17 -71 -36 -94 -37 -131 -6 -15 13 -41 30 -58 39 -42
21 -80 63 -65 72 6 4 35 4 63 1 42 -5 69 -1 142 24 102 34 158 35 290 6z m223
17 c-16 -2 -40 -2 -55 0 -16 2 -3 4 27 4 30 0 43 -2 28 -4z m-2161 -102 l122
-9 68 -46 c105 -72 137 -101 130 -119 -6 -17 -20 -16 -65 6 -18 8 -45 6 -122
-11 -109 -25 -99 -27 -210 34 -24 13 -61 24 -82 24 -47 0 -128 -36 -190 -83
-97 -74 -148 -107 -170 -108 -19 -1 -19 -2 -5 -6 25 -6 69 12 147 62 112 72
168 79 255 30 64 -37 92 -38 178 -10 119 39 131 37 239 -37 31 -21 62 -38 70
-38 9 0 30 -13 47 -29 56 -52 33 -107 -27 -65 -17 12 -37 14 -91 8 -47 -4 -75
-2 -92 6 -33 18 -119 16 -156 -4 -41 -20 -119 -21 -180 0 -72 25 -169 23 -229
-2 -75 -33 -168 -46 -239 -34 -54 9 -63 8 -87 -10 -36 -27 -48 -25 -48 6 0 47
57 124 92 124 31 0 32 27 3 53 l-28 23 48 52 c30 33 64 57 94 69 51 19 116 56
126 73 5 9 48 30 105 54 16 6 98 3 297 -13z m1316 0 l118 -8 72 -49 c100 -69
127 -93 127 -115 0 -23 -12 -24 -57 -2 -33 15 -40 15 -128 -5 -98 -22 -140
-19 -174 12 -26 24 -87 46 -124 46 -52 0 -133 -41 -232 -116 -48 -37 -102 -71
-119 -75 l-31 -7 31 -1 c20 -1 53 13 95 39 160 101 193 107 310 51 36 -17 72
-31 80 -31 8 0 46 11 84 25 113 40 159 33 238 -38 16 -14 42 -29 58 -32 35 -8
99 -65 99 -89 0 -25 -26 -30 -62 -13 -22 11 -50 14 -94 11 -40 -3 -81 0 -115
10 -53 16 -77 14 -142 -10 -50 -19 -116 -18 -174 3 -65 23 -179 23 -220 0 -18
-10 -69 -24 -114 -33 -65 -12 -91 -13 -136 -4 -51 11 -56 10 -78 -10 -17 -16
-32 -21 -50 -18 -22 5 -28 1 -36 -21 -6 -14 -8 -36 -6 -49 4 -22 -15 -52 -33
-52 -11 0 -20 37 -20 85 0 22 -5 47 -10 55 -6 10 -3 21 12 37 31 33 57 30 65
-7 4 -24 8 -28 19 -19 8 6 14 20 14 29 0 28 47 77 85 90 40 13 43 20 15 38
-52 32 5 115 107 158 38 16 70 31 73 34 17 18 86 64 122 81 46 21 46 21 331 0z
m1315 0 c122 -10 137 -17 239 -95 83 -64 99 -115 25 -82 -37 17 -43 17 -118 0
-129 -28 -126 -28 -169 2 -55 37 -119 58 -161 51 -56 -9 -133 -50 -223 -117
-46 -34 -95 -66 -110 -70 l-26 -8 25 -1 c28 0 57 14 161 78 94 59 146 62 236
14 70 -38 94 -40 154 -14 52 23 129 36 162 27 13 -3 41 -20 63 -37 21 -17 67
-44 102 -60 52 -23 66 -35 78 -65 19 -46 4 -60 -40 -37 -19 10 -62 17 -111 18
-44 2 -110 6 -147 10 -54 6 -74 4 -104 -10 -44 -21 -140 -16 -214 11 -56 20
-138 14 -197 -15 -23 -12 -51 -21 -62 -21 -11 0 -42 -5 -70 -12 -39 -9 -63 -9
-103 1 -48 11 -55 10 -81 -10 -18 -13 -38 -19 -53 -16 -30 5 -35 -2 -36 -56 0
-23 -5 -48 -10 -54 -23 -29 -35 -11 -46 70 -10 78 -10 83 10 100 30 25 48 21
55 -13 4 -24 8 -28 19 -19 7 5 16 24 19 40 7 30 52 71 93 84 27 8 28 21 2 35
-52 28 8 114 109 156 36 15 85 43 108 61 23 19 61 43 85 54 46 22 71 22 336 0z
m-788 -81 c10 -18 8 -20 -20 -20 -51 0 -110 -23 -110 -42 0 -26 36 -23 101 8
29 15 63 26 74 26 11 0 39 -1 63 -2 23 -1 42 -3 42 -5 0 -14 -27 -68 -56 -112
-19 -28 -34 -56 -34 -62 0 -16 -53 -49 -93 -56 -36 -7 -37 -7 -58 41 -11 27
-26 56 -33 64 -7 8 -19 31 -26 50 -7 19 -20 43 -29 53 -18 22 -8 31 54 48 22
6 49 15 60 19 33 14 54 11 65 -10z m-1312 -7 c2 -9 -7 -13 -25 -13 -50 0 -128
-34 -118 -51 9 -14 66 -11 84 4 28 23 95 39 146 35 54 -5 64 -18 42 -54 -6
-12 -29 -51 -49 -86 -39 -66 -59 -82 -121 -93 -34 -7 -35 -5 -47 32 -7 21 -20
47 -30 58 -9 11 -25 41 -35 68 -10 26 -22 47 -26 47 -18 0 -8 30 12 41 49 26
159 34 167 12z m-6163 -73 c3 -5 -3 -10 -15 -10 -12 0 -18 5 -15 10 3 6 10 10
15 10 5 0 12 -4 15 -10z m5540 -20 c3 -5 -1 -10 -9 -10 -8 0 -18 5 -21 10 -3
6 1 10 9 10 8 0 18 -4 21 -10z m2629 4 c17 -6 22 -24 8 -24 -5 0 -17 7 -28 15
-19 15 -8 20 20 9z m-1288 -19 c4 -8 14 -15 24 -15 11 0 22 -4 25 -10 10 -16
-31 -11 -45 5 -7 8 -18 15 -26 15 -7 0 -16 5 -19 10 -3 6 3 10 15 10 11 0 23
-7 26 -15z m-2036 -15 c4 0 7 -181 7 -402 l-2 -403 -35 0 -35 0 -3 395 c-2
365 -1 396 15 408 10 7 24 10 31 7 8 -3 17 -5 22 -5z m3386 -5 c18 -14 18 -14
-8 -15 -18 0 -28 5 -28 15 0 19 11 19 36 0z m602 3 c6 -8 11 -166 13 -408 l4
-395 -39 0 -39 0 -2 395 c-1 234 2 400 8 408 5 6 17 12 27 12 10 0 22 -6 28
-12z m-4120 -393 c2 -380 -1 -427 -29 -409 -10 6 -12 787 -2 798 25 24 28 -18
31 -389z m902 385 c12 -8 9 -10 -12 -10 -15 0 -30 5 -33 10 -8 13 25 13 45 0z
m-8244 -47 c-7 -88 11 -204 35 -230 l22 -23 -21 -23 c-32 -34 -42 -106 -33
-240 8 -110 10 -118 35 -138 33 -26 33 -39 2 -39 -19 0 -25 -6 -28 -27 -3 -29
-16 -37 -37 -24 -25 16 -16 446 11 478 7 9 7 17 -1 27 -13 15 -26 260 -15 277
3 5 11 9 19 9 11 0 13 -12 11 -47z m769 -120 c4 -32 13 -70 21 -85 21 -40 17
-69 -13 -100 -21 -22 -27 -37 -25 -62 4 -47 -12 -53 -59 -20 -31 21 -61 30
-141 41 -166 23 -219 84 -134 155 51 41 185 39 233 -4 42 -38 60 -19 83 84 7
32 16 55 20 53 4 -3 11 -31 15 -62z m7434 -59 c112 -27 141 -26 259 8 34 10
49 10 75 -1 17 -7 61 -21 95 -31 79 -22 95 -36 67 -56 -14 -10 -42 -14 -95
-13 -56 1 -90 -4 -135 -20 -136 -51 -169 -61 -193 -61 -14 0 -59 16 -101 36
-103 50 -164 51 -255 5 -69 -36 -63 -35 -215 -11 -56 9 -80 9 -102 0 -67 -28
-115 26 -68 76 31 33 86 46 204 49 68 1 114 7 145 19 105 41 145 41 319 0z
m186 26 c16 -7 11 -9 -20 -9 -29 -1 -36 2 -25 9 17 11 19 11 45 0z m1083 -16
c128 -31 185 -32 279 -8 66 17 74 17 110 2 21 -9 47 -19 58 -22 89 -22 105
-28 105 -41 0 -24 -36 -35 -112 -34 -52 0 -90 -6 -133 -21 -125 -46 -169 -60
-192 -60 -12 0 -58 16 -100 36 -105 49 -168 50 -259 4 -56 -29 -69 -32 -111
-25 -117 18 -173 20 -229 10 -36 -6 -43 -4 -57 16 -16 21 -15 25 6 53 33 43
86 57 212 60 82 2 120 7 150 20 90 41 136 43 273 10z m232 16 c11 -7 7 -10
-18 -10 -20 0 -31 4 -27 10 8 13 26 13 45 0z m1128 -26 c110 -26 156 -26 236
2 50 18 86 18 113 -1 11 -8 40 -17 64 -21 49 -8 99 -30 99 -44 0 -20 -44 -31
-113 -29 -73 3 -105 -4 -207 -47 -97 -41 -127 -41 -216 -1 -44 19 -92 38 -109
41 -38 8 -141 -18 -179 -46 -30 -21 -26 -21 -181 -1 -50 7 -90 6 -138 -2 -63
-12 -85 22 -47 75 26 36 93 53 220 55 70 1 109 7 150 23 98 37 135 37 308 -4z
m192 20 c0 -2 -17 -4 -37 -3 -29 0 -33 2 -18 8 18 7 55 4 55 -5z m-2300 -184
c0 -22 -11 -36 -52 -67 -92 -70 -121 -83 -177 -83 -41 0 -60 -6 -86 -26 -44
-33 -124 -54 -205 -52 -41 0 -90 -7 -134 -21 -37 -11 -82 -21 -100 -21 -32 0
-36 2 -133 60 -51 31 -69 36 -145 40 -79 5 -91 9 -117 34 -64 62 -64 130 0 93
38 -21 102 -22 119 -2 18 22 99 19 173 -6 87 -30 121 -28 196 9 53 27 69 31
90 23 76 -30 107 -32 172 -11 77 24 131 25 164 4 22 -14 28 -13 104 24 94 46
131 47 131 2z m1312 16 c4 -6 8 -15 8 -19 0 -15 -65 -74 -124 -111 -49 -31
-68 -38 -110 -37 -39 0 -60 -6 -89 -26 -49 -34 -125 -53 -213 -53 -41 0 -87
-6 -107 -15 -61 -25 -137 -29 -174 -8 -136 78 -156 86 -223 84 -36 0 -76 5
-89 11 -29 15 -76 74 -86 106 -5 18 -3 22 17 22 13 -1 34 -7 48 -15 32 -19 90
-18 114 0 30 22 100 18 187 -11 l78 -27 61 23 c33 12 63 27 66 31 8 13 62 11
124 -6 50 -13 59 -13 118 5 79 25 139 26 164 3 18 -16 23 -15 100 24 79 39
113 44 130 19z m1292 18 c9 -4 16 -18 16 -33 0 -32 -31 -63 -114 -116 -50 -32
-67 -37 -111 -36 -37 0 -59 -5 -76 -18 -52 -40 -88 -51 -182 -55 -57 -3 -122
-13 -166 -26 -90 -28 -134 -23 -204 22 -76 50 -101 58 -172 58 -35 0 -74 5
-87 11 -31 14 -88 86 -88 110 0 23 36 25 64 4 25 -19 85 -19 110 0 30 23 102
18 193 -12 l82 -27 81 36 80 37 67 -20 c66 -18 67 -18 131 1 79 25 139 26 164
3 18 -16 23 -15 101 24 90 46 89 46 111 37z m-3254 -12 c0 -14 -23 -32 -41
-32 -9 0 -22 -7 -29 -15 -17 -20 -102 -21 -94 -1 3 8 23 17 44 21 21 4 44 13
51 21 12 15 69 20 69 6z m1320 0 c0 -14 -23 -32 -41 -32 -9 0 -22 -7 -29 -15
-7 -9 -29 -15 -51 -15 -54 0 -52 25 4 41 23 7 46 16 52 21 12 10 65 11 65 0z
m1308 -4 c-2 -6 -11 -15 -19 -18 -8 -4 -28 -15 -46 -24 -36 -19 -107 -22 -101
-4 2 6 22 17 43 25 22 7 44 18 49 23 14 14 79 13 74 -2z m-9934 -209 c4 -28
16 -73 27 -100 10 -28 17 -55 14 -60 -4 -5 -33 -9 -66 -9 -52 0 -59 2 -59 19
0 11 4 22 9 25 7 5 29 74 45 149 10 42 23 32 30 -24z m7908 16 c-7 -43 -58
-90 -127 -118 -38 -15 -87 -43 -111 -62 l-42 -35 -260 0 c-205 0 -268 3 -302
15 -23 8 -57 15 -74 15 -51 0 -173 87 -162 115 5 13 18 14 73 9 66 -6 163 -39
163 -54 0 -13 60 -30 104 -30 23 0 65 7 95 14 38 11 60 12 80 5 54 -21 122
-14 185 20 47 25 70 31 118 31 56 0 66 4 136 51 81 54 130 64 124 24z m1309
-14 c-25 -48 -71 -87 -120 -102 -21 -6 -65 -31 -97 -55 l-59 -44 -263 0 c-167
0 -271 4 -283 11 -11 5 -48 15 -81 20 -45 7 -75 20 -110 45 -46 35 -75 70 -65
81 3 2 45 0 94 -6 74 -9 95 -16 133 -43 42 -30 50 -33 115 -31 39 1 123 3 188
3 109 0 122 2 163 26 32 19 65 28 122 33 69 6 84 11 131 44 62 45 86 55 124
56 l27 1 -19 -39z m1324 29 c12 -19 -53 -97 -99 -119 -25 -11 -50 -21 -56 -21
-6 0 -38 -20 -72 -45 l-62 -45 -262 0 c-210 0 -269 3 -297 15 -20 8 -49 15
-64 15 -15 0 -46 9 -68 19 -49 22 -119 86 -110 101 10 16 144 1 190 -22 22
-10 56 -28 75 -38 40 -23 99 -25 163 -8 32 8 62 8 117 0 74 -11 75 -11 151 23
58 26 90 35 132 35 47 0 63 5 108 36 95 64 139 79 154 54z m-8939 -322 c14
-40 6 -180 -11 -197 -13 -13 -13 -17 1 -32 22 -24 29 -90 12 -112 -12 -17 -77
-18 -1205 -20 -986 -2 -1194 0 -1198 11 -11 29 -5 101 10 116 8 8 15 17 15 21
0 4 -7 13 -15 21 -19 19 -21 184 -3 202 9 9 289 12 1199 12 l1188 0 7 -22z
m2465 6 c19 -24 15 -181 -6 -204 -14 -15 -14 -19 -1 -30 23 -18 30 -74 14
-105 l-13 -26 -1188 0 c-653 0 -1192 3 -1197 6 -15 9 -12 99 4 120 12 17 12
22 0 39 -18 26 -20 186 -2 204 9 9 288 12 1194 12 1074 0 1183 -1 1195 -16z
m2497 4 c18 -18 16 -178 -2 -204 -12 -17 -12 -22 0 -39 16 -21 19 -111 4 -120
-5 -3 -544 -6 -1197 -6 -1125 1 -1189 2 -1201 18 -17 22 -10 88 12 112 14 15
14 19 0 33 -20 20 -24 179 -5 202 12 14 133 16 1195 16 906 0 1185 -3 1194
-12z m4140 0 c19 -19 16 -187 -3 -208 -14 -15 -14 -18 0 -30 17 -14 22 -115 6
-125 -15 -9 -4054 -6 -4063 3 -15 15 -12 90 5 115 14 22 14 27 2 37 -11 9 -15
35 -15 100 0 49 3 95 6 104 6 15 194 16 2028 16 1559 0 2025 -3 2034 -12z"/>
<path d="M3592 6080 c0 -14 2 -19 5 -12 2 6 2 18 0 25 -3 6 -5 1 -5 -13z"/>
<path d="M4148 5313 c7 -3 16 -2 19 1 4 3 -2 6 -13 5 -11 0 -14 -3 -6 -6z"/>
<path d="M5393 5313 c9 -2 23 -2 30 0 6 3 -1 5 -18 5 -16 0 -22 -2 -12 -5z"/>
<path d="M5663 5313 c54 -2 139 -2 190 0 51 1 7 3 -98 3 -104 0 -146 -2 -92
-3z"/>
<path d="M6878 5313 c6 -2 18 -2 25 0 6 3 1 5 -13 5 -14 0 -19 -2 -12 -5z"/>
<path d="M8013 5313 c26 -2 68 -2 95 0 26 2 4 3 -48 3 -52 0 -74 -1 -47 -3z"/>
<path d="M8573 5313 c15 -2 37 -2 50 0 12 2 0 4 -28 4 -27 0 -38 -2 -22 -4z"/>
<path d="M9213 5313 c9 -2 25 -2 35 0 9 3 1 5 -18 5 -19 0 -27 -2 -17 -5z"/>
<path d="M9473 5313 c9 -2 23 -2 30 0 6 3 -1 5 -18 5 -16 0 -22 -2 -12 -5z"/>
<path d="M12453 5313 c26 -2 67 -2 90 0 23 2 2 3 -48 3 -49 0 -68 -1 -42 -3z"/>
<path d="M13238 5313 c6 -2 18 -2 25 0 6 3 1 5 -13 5 -14 0 -19 -2 -12 -5z"/>
<path d="M14028 5313 c29 -2 74 -2 100 0 26 2 2 3 -53 3 -55 0 -76 -1 -47 -3z"/>
<path d="M3356 6601 c-4 -6 -1 -11 6 -12 7 0 42 -2 78 -5 49 -4 62 -2 54 6
-16 16 -129 26 -138 11z"/>
<path d="M4106 6601 c-7 -11 43 -21 103 -21 l46 1 -34 14 c-37 16 -107 20
-115 6z"/>
<path d="M4890 6600 c0 -12 57 -22 105 -18 l40 4 -28 12 c-34 14 -117 16 -117
2z"/>
<path d="M4270 6566 c0 -10 48 -56 59 -56 22 0 10 30 -19 45 -30 16 -40 18
-40 11z"/>
<path d="M5060 6563 c0 -11 45 -53 58 -53 25 0 7 32 -25 45 -18 8 -33 12 -33
8z"/>
<path d="M3553 6533 c20 -16 38 -37 40 -48 3 -14 5 -11 6 9 1 32 -30 66 -62
66 -16 0 -13 -5 16 -27z"/>
<path d="M8328 6443 c-21 -5 -24 -29 -5 -40 8 -4 16 -16 20 -25 9 -26 18 -22
51 18 23 29 26 38 15 45 -15 9 -51 10 -81 2z"/>
<path d="M8782 6443 c-30 -6 -23 -25 12 -38 23 -8 30 -6 42 10 11 15 11 20 1
27 -13 8 -17 8 -55 1z"/>
<path d="M9228 6442 c-23 -4 -23 -31 -2 -39 18 -7 45 6 51 24 4 12 -24 21 -49
15z"/>
<path d="M9653 6443 c-29 -5 -29 -24 -3 -41 12 -7 18 -17 15 -22 -15 -24 18
-7 44 23 26 28 27 33 13 39 -19 7 -35 8 -69 1z"/>
<path d="M4340 6052 c0 -15 28 -47 35 -40 8 8 -13 48 -25 48 -6 0 -10 -4 -10
-8z"/>
<path d="M6287 5988 c-14 -8 -16 -13 -6 -24 17 -20 39 -17 39 5 0 26 -11 32
-33 19z"/>
<path d="M8350 5840 c0 -5 5 -10 11 -10 5 0 7 5 4 10 -3 6 -8 10 -11 10 -2 0
-4 -4 -4 -10z"/>
<path d="M4167 3773 c-4 -3 -7 -51 -7 -105 0 -96 1 -99 25 -108 33 -13 413
-12 437 1 15 8 18 23 18 99 0 48 -3 95 -6 104 -5 14 -35 16 -233 16 -125 0
-231 -3 -234 -7z"/>
<path d="M5552 3763 c-12 -23 -6 -193 8 -207 6 -6 91 -9 222 -7 260 3 246 -5
238 131 l-5 95 -227 3 c-209 2 -228 1 -236 -15z"/>
<path d="M6662 3768 c-10 -13 -15 -58 -13 -140 2 -78 2 -78 244 -78 133 1 216
5 224 12 17 14 18 189 1 206 -17 17 -441 17 -456 0z"/>
<path d="M8052 3768 c-16 -16 -16 -190 0 -206 17 -17 428 -17 451 1 15 10 17
27 15 112 l-3 100 -225 3 c-167 2 -229 -1 -238 -10z"/>
<path d="M9162 3768 c-8 -8 -12 -46 -12 -103 0 -57 4 -95 12 -103 9 -9 72 -12
223 -12 189 0 213 2 227 18 19 22 25 177 7 198 -15 19 -438 21 -457 2z"/>
<path d="M10540 3755 c-12 -31 -11 -164 2 -187 8 -16 29 -18 219 -18 126 0
218 4 230 10 17 9 19 22 19 100 0 48 -3 95 -6 104 -5 14 -35 16 -230 16 l-224
0 -10 -25z"/>
<path d="M11652 3768 c-18 -18 -16 -192 2 -208 11 -8 73 -11 218 -10 255 1
248 -2 248 114 0 47 -3 91 -6 100 -5 14 -35 16 -228 16 -159 0 -225 -3 -234
-12z"/>
<path d="M5898 3523 c-9 -2 -18 -14 -20 -26 -7 -35 -3 -160 5 -184 l8 -23
-120 0 c-85 0 -122 -4 -128 -12 -11 -18 -3 -190 9 -206 9 -10 60 -12 232 -8
122 2 230 4 241 4 11 -1 118 -1 239 -1 175 0 220 3 227 14 13 20 11 173 -2
186 -27 27 3 35 123 31 94 -4 123 -2 134 9 10 10 14 41 14 108 0 83 -2 96 -19
105 -24 12 -420 14 -440 1 -10 -7 -13 -31 -12 -97 1 -49 5 -99 8 -112 5 -22 3
-23 -28 -20 -28 2 -33 6 -29 23 3 11 5 63 5 115 l0 95 -215 1 c-118 1 -222 0
-232 -3z m252 -232 c0 -16 -27 -31 -44 -25 -30 11 -16 34 21 34 13 0 23 -4 23
-9z"/>
<path d="M6901 3516 c-8 -9 -11 -48 -9 -112 l3 -99 100 -2 c127 -4 149 -8 140
-31 -10 -25 -5 -185 6 -197 5 -5 100 -11 220 -13 172 -3 214 -1 232 11 20 13
26 13 42 1 14 -10 54 -14 149 -14 127 0 130 -1 108 -18 -19 -15 -23 -29 -28
-106 -3 -60 -1 -93 7 -102 10 -12 51 -14 220 -13 132 1 217 6 231 13 22 11 23
17 21 101 -2 49 -7 93 -13 99 -6 6 -43 11 -83 12 -169 1 -181 3 -166 20 16 19
21 192 6 212 -7 8 -44 12 -124 12 -106 0 -115 1 -107 18 9 21 23 182 16 200
-7 20 -38 23 -257 20 l-210 -3 0 -100 c0 -55 4 -108 9 -118 8 -16 4 -18 -30
-15 -29 2 -38 7 -34 18 8 25 12 171 6 196 l-6 24 -219 0 c-175 0 -221 -3 -230
-14z m739 -230 c0 -7 -7 -20 -16 -27 -14 -11 -18 -10 -30 5 -7 11 -11 23 -8
27 9 15 54 10 54 -5z m-21 -103 c-1 -54 -2 -56 -11 -26 -10 29 -5 83 7 83 3 0
5 -26 4 -57z m394 -135 c-23 -8 -43 -8 -65 0 -30 9 -27 10 32 10 59 0 62 -1
33 -10z"/>
<path d="M8378 3507 c-6 -13 -9 -57 -6 -119 l5 -98 -113 0 c-74 0 -115 -4
-120 -12 -10 -16 -12 -168 -2 -195 l7 -23 457 1 c407 1 458 3 473 18 19 19 21
154 2 189 -14 27 -22 25 130 27 81 0 122 5 133 14 21 18 21 185 -1 207 -12 11
-56 14 -228 14 -203 0 -215 -1 -225 -20 -11 -20 -7 -157 5 -197 7 -20 4 -23
-23 -23 -17 0 -33 3 -35 8 -2 4 0 50 3 102 4 52 3 103 -2 113 -8 16 -27 18
-229 16 -210 -1 -220 -2 -231 -22z m262 -216 c0 -14 -28 -33 -40 -26 -20 12
-10 35 15 35 14 0 25 -4 25 -9z"/>
<path d="M9402 3518 c-16 -16 -17 -204 -1 -214 6 -4 62 -7 123 -8 105 -1 111
-2 108 -21 -8 -50 -8 -185 -1 -197 7 -10 98 -13 476 -13 l468 0 6 90 c9 138
11 135 -122 135 -102 0 -110 1 -103 18 14 29 17 192 4 208 -16 19 -439 21
-458 2 -15 -15 -17 -184 -2 -193 24 -15 9 -35 -26 -35 -33 0 -36 2 -30 23 11
34 13 180 4 200 -8 15 -29 17 -221 17 -152 0 -216 -3 -225 -12z m728 -233 c0
-21 -30 -31 -40 -14 -11 17 -3 29 21 29 10 0 19 -7 19 -15z"/>
<path d="M10876 3517 c-15 -11 -17 -26 -14 -102 2 -50 6 -97 8 -105 4 -13 -13
-15 -109 -18 -64 -1 -121 -8 -128 -14 -20 -17 -18 -182 3 -203 14 -14 43 -15
233 -11 119 2 225 4 236 4 291 -5 449 -2 463 8 17 13 22 106 8 176 -7 36 -6
37 30 44 20 4 76 4 126 2 83 -5 90 -4 103 16 18 29 14 194 -6 207 -19 12 -416
11 -439 -1 -15 -8 -18 -23 -18 -100 0 -50 4 -93 9 -96 5 -3 9 -12 9 -20 0 -9
-11 -14 -36 -14 -33 0 -36 2 -29 23 8 23 7 196 -2 209 -2 5 -100 8 -217 8
-158 0 -217 -3 -230 -13z m240 -228 c11 -18 -13 -34 -31 -19 -8 7 -15 16 -15
21 0 13 38 11 46 -2z"/>
<path d="M5386 3036 c-10 -7 -15 -38 -18 -99 -6 -125 -18 -120 241 -114 136 3
215 8 224 16 21 17 21 170 1 192 -14 15 -41 17 -224 17 -141 0 -214 -4 -224
-12z"/>
<path d="M10394 3041 c-37 -7 -42 -19 -40 -112 1 -67 5 -92 16 -99 22 -15 437
-7 452 8 16 16 18 168 2 190 -11 15 -34 17 -211 17 -110 0 -208 -2 -219 -4z"/>
<path d="M6374 3028 c-11 -17 -12 -180 -2 -200 8 -16 29 -18 227 -18 180 0
221 3 231 15 10 12 15 12 34 0 18 -12 63 -15 227 -14 112 0 212 5 221 10 15 8
18 24 18 102 0 59 -4 97 -12 105 -17 17 -439 17 -456 0 -9 -9 -15 -9 -24 0
-17 17 -454 17 -464 0z m486 -99 c0 -33 -4 -59 -10 -59 -6 0 -10 29 -10 66 0
41 4 63 10 59 6 -3 10 -33 10 -66z"/>
<path d="M8878 3029 c-15 -8 -18 -25 -18 -99 0 -48 3 -95 6 -104 9 -23 439
-24 464 -1 15 14 18 14 30 0 10 -13 47 -15 225 -15 256 0 245 -6 245 121 0 53
-5 90 -12 97 -9 9 -74 12 -229 12 -182 0 -219 -2 -229 -15 -12 -14 -15 -14
-30 0 -14 12 -52 15 -226 15 -123 0 -216 -5 -226 -11z m475 -157 c-11 -28 -20
11 -14 68 l5 55 7 -54 c4 -30 5 -61 2 -69z"/>
<path d="M11365 3026 c-16 -12 -18 -25 -16 -102 1 -49 7 -94 13 -101 16 -20
426 -18 455 2 18 13 22 13 33 0 19 -23 433 -21 455 2 22 21 21 176 -1 197 -13
14 -48 16 -229 16 -148 0 -216 -3 -221 -11 -4 -7 -8 -45 -9 -86 -2 -41 -6 -77
-9 -80 -3 -4 -6 2 -7 13 -3 130 -5 146 -19 154 -8 5 -108 10 -221 10 -158 0
-209 -3 -224 -14z"/>
<path d="M5773 2800 c-78 -3 -145 -9 -150 -13 -10 -10 -10 -175 -1 -199 7 -16
27 -18 226 -18 156 0 221 3 230 12 14 14 17 185 3 207 -10 16 -98 20 -308 11z"/>
<path d="M8185 2802 c-27 -2 -55 -8 -62 -14 -14 -11 -19 -171 -7 -202 5 -14
35 -16 228 -16 159 0 225 3 234 12 13 13 17 185 4 205 -7 11 -287 22 -397 15z"/>
<path d="M10753 2800 c-74 -3 -137 -10 -143 -16 -7 -7 -10 -48 -8 -110 l3 -99
227 -3 c223 -2 227 -2 239 19 16 30 8 197 -10 208 -15 10 -100 10 -308 1z"/>
<path d="M7286 2783 c-74 -2 -135 -8 -143 -15 -17 -14 -18 -193 -2 -204 14 -8
447 -7 460 2 12 7 12 166 -1 198 -9 25 -11 26 -97 24 -49 -1 -146 -4 -217 -5z"/>
<path d="M9750 2782 c-58 -1 -109 -7 -114 -12 -13 -13 -19 -182 -7 -200 9 -12
47 -15 227 -17 266 -1 256 -6 249 123 -3 48 -9 92 -15 99 -10 12 -105 14 -340
7z"/>
<path d="M5060 2346 c0 -14 5 -26 10 -26 6 0 10 9 10 19 0 11 -4 23 -10 26 -6
4 -10 -5 -10 -19z"/>
<path d="M1828 2155 c-4 -60 -10 -122 -14 -138 -5 -22 -3 -26 9 -21 17 6 26
116 17 214 -5 48 -6 40 -12 -55z"/>
<path d="M5099 2195 c-3 -11 -3 -57 -1 -102 3 -60 8 -83 19 -87 11 -5 13 -1 7
17 -4 12 -10 60 -13 107 -3 47 -9 76 -12 65z"/>
<path d="M1802 1939 c-7 -11 -12 -58 -12 -114 l0 -95 1680 0 c1337 0 1680 3
1681 13 3 61 -4 184 -12 199 -8 14 -14 16 -29 8 -24 -13 -3238 -14 -3273 -1
-18 7 -26 5 -35 -10z"/>
</g>
</svg>
